<?xml version="1.0" encoding="UTF-8"?>
<svg version="1.1" xmlns="http://www.w3.org/2000/svg" width="320" height="320">
<path d="M0 0 C49.83 0 99.66 0 151 0 C151.33 1.65 151.66 3.3 152 5 C153.98 5.495 153.98 5.495 156 6 C156 33.06 156 60.12 156 88 C156.99 88 157.98 88 159 88 C158.9690625 86.576875 158.9690625 86.576875 158.9375 85.125 C159 82 159 82 160 80 C161.97909398 79.97313447 163.95828971 79.95366625 165.9375 79.9375 C167.03964844 79.92589844 168.14179688 79.91429687 169.27734375 79.90234375 C172 80 172 80 173 81 C173.04092937 83.33297433 173.04241723 85.66705225 173 88 C174.134375 87.979375 175.26875 87.95875 176.4375 87.9375 C180 88 180 88 181 89 C181.09795311 90.37609882 181.12798088 91.75713882 181.12939453 93.13671875 C181.13254669 94.01432861 181.13569885 94.89193848 181.13894653 95.79614258 C181.13591019 97.2273645 181.13591019 97.2273645 181.1328125 98.6875 C181.13376923 99.66033936 181.13472595 100.63317871 181.13571167 101.63549805 C181.13639358 103.696778 181.13453853 105.75806008 181.13037109 107.81933594 C181.125023 110.98637688 181.13031572 114.153276 181.13671875 117.3203125 C181.13605797 119.31770865 181.13477681 121.31510471 181.1328125 123.3125 C181.13483673 124.26664795 181.13686096 125.2207959 181.13894653 126.20385742 C181.13421829 127.52027222 181.13421829 127.52027222 181.12939453 128.86328125 C181.12859894 129.63969971 181.12780334 130.41611816 181.12698364 131.21606445 C181 133 181 133 180 134 C183.63 134.33 187.26 134.66 191 135 C191 136.65 191 138.3 191 140 C192.65 140 194.3 140 196 140 C196 141.32 196 142.64 196 144 C197.65 144.33 199.3 144.66 201 145 C201 150.61 201 156.22 201 162 C199.02 162.99 199.02 162.99 197 164 C196.67 164.99 196.34 165.98 196 167 C192.52085059 167.02887814 189.04173169 167.04675687 185.5625 167.0625 C184.56927734 167.07087891 183.57605469 167.07925781 182.55273438 167.08789062 C181.60849609 167.09111328 180.66425781 167.09433594 179.69140625 167.09765625 C178.81685791 167.10289307 177.94230957 167.10812988 177.04125977 167.11352539 C175 167 175 167 174 166 C173.93941406 167.21558594 173.87882813 168.43117187 173.81640625 169.68359375 C173.73201668 171.26824228 173.6473679 172.85287702 173.5625 174.4375 C173.52318359 175.23994141 173.48386719 176.04238281 173.44335938 176.86914062 C173.11328125 182.88671875 173.11328125 182.88671875 172 184 C169.32941149 184.14115161 166.67567762 184.04247107 164 184 C164.01047363 184.68102783 164.02094727 185.36205566 164.03173828 186.0637207 C164.07328878 189.14660966 164.09932311 192.22943971 164.125 195.3125 C164.14175781 196.38435547 164.15851563 197.45621094 164.17578125 198.56054688 C164.18222656 199.58857422 164.18867188 200.61660156 164.1953125 201.67578125 C164.20578613 202.62364502 164.21625977 203.57150879 164.22705078 204.5480957 C164 207 164 207 162 210 C158.375 210.1875 158.375 210.1875 155 210 C155 211.32 155 212.64 155 214 C155.928125 213.938125 156.85625 213.87625 157.8125 213.8125 C161 214 161 214 162.67871094 215.26538086 C164.96769483 218.27041238 164.34612038 221.94296709 164.25 225.5625 C164.24484375 226.34302734 164.2396875 227.12355469 164.234375 227.92773438 C164.15482198 233.69035603 164.15482198 233.69035603 163 236 C160.35139573 236.59355614 157.70802678 236.74209269 155 237 C155 239.31 155 241.62 155 244 C149.72 244 144.44 244 139 244 C139 244.66 139 245.32 139 246 C120.52 246 102.04 246 83 246 C83 245.34 83 244.68 83 244 C81.39318359 244.01740234 81.39318359 244.01740234 79.75390625 244.03515625 C78.35677257 244.04453299 76.95963701 244.05363331 75.5625 244.0625 C74.85544922 244.07087891 74.14839844 244.07925781 73.41992188 244.08789062 C71.61306441 244.09653588 69.80612397 244.05220011 68 244 C67 243 67 243 66.9375 239.9375 C66.958125 238.968125 66.97875 237.99875 67 237 C65.865625 236.855625 64.73125 236.71125 63.5625 236.5625 C60 236 60 236 59 235 C58.72313113 231.86257232 58.76826371 228.71070723 58.75 225.5625 C58.729375 224.67755859 58.70875 223.79261719 58.6875 222.88085938 C58.67976563 221.61145508 58.67976563 221.61145508 58.671875 220.31640625 C58.6625293 219.53724854 58.65318359 218.75809082 58.64355469 217.95532227 C58.76118164 217.31006592 58.87880859 216.66480957 59 216 C62.22791555 213.8480563 63.28400809 213.79913557 67 214 C67 212.68 67 211.36 67 210 C65.78441406 210.01160156 64.56882812 210.02320313 63.31640625 210.03515625 C61.73177236 210.04453278 60.14713682 210.05363313 58.5625 210.0625 C57.76005859 210.07087891 56.95761719 210.07925781 56.13085938 210.08789062 C54.08704779 210.0965143 52.04316098 210.0522815 50 210 C49 209 49 209 48.9375 205.4375 C48.958125 204.303125 48.97875 203.16875 49 202 C47.2984375 202.0309375 47.2984375 202.0309375 45.5625 202.0625 C42 202 42 202 41 201 C40.91153166 198.47931819 40.88465476 195.98545583 40.90234375 193.46484375 C40.90335083 192.79747192 40.90435791 192.1301001 40.90539551 191.44250488 C40.91064192 188.9408192 40.92460309 186.43915794 40.9375 183.9375 C40.9684375 175.5534375 40.9684375 175.5534375 41 167 C27.14 167 13.28 167 -1 167 C-1 165.68 -1 164.36 -1 163 C-2.65 162.67 -4.3 162.34 -6 162 C-6 158.04 -6 154.08 -6 150 C-4.68 149.67 -3.36 149.34 -2 149 C-1.505 147.02 -1.505 147.02 -1 145 C0.32 144.67 1.64 144.34 3 144 C3.495 142.02 3.495 142.02 4 140 C5.65 139.67 7.3 139.34 9 139 C9 137.68 9 136.36 9 135 C10.32 134.67 11.64 134.34 13 134 C13.33 132.68 13.66 131.36 14 130 C15.32 129.67 16.64 129.34 18 129 C18.33 127.68 18.66 126.36 19 125 C26.26 125 33.52 125 41 125 C41 122.69 41 120.38 41 118 C39.79875488 118.01047363 38.59750977 118.02094727 37.35986328 118.03173828 C32.91327888 118.06787287 28.46670752 118.09087657 24.02001953 118.10986328 C22.09356506 118.11993582 20.16712592 118.13359443 18.24072266 118.15087891 C15.47554748 118.17507241 12.710574 118.18647036 9.9453125 118.1953125 C9.0806839 118.20563507 8.2160553 118.21595764 7.32522583 118.22659302 C5.21546479 118.22699106 3.10619282 118.12265243 1 118 C0.34 117.34 -0.32 116.68 -1 116 C-1 114.68 -1 113.36 -1 112 C-2.65 112 -4.3 112 -6 112 C-6 77.02 -6 42.04 -6 6 C-4.35 5.67 -2.7 5.34 -1 5 C-0.67 3.35 -0.34 1.7 0 0 Z " fill="#050504" transform="translate(74,74)"/>
<path d="M0 0 C37.3250878 -0.04030303 37.3250878 -0.04030303 52.91601562 -0.04882812 C63.69897942 -0.05477142 74.48193543 -0.06177392 85.26489258 -0.07543945 C93.1165955 -0.08538541 100.96829214 -0.09185322 108.82000118 -0.09408849 C112.98003452 -0.09539575 117.14004985 -0.09848255 121.30007744 -0.10573006 C125.21108412 -0.11248889 129.12206527 -0.11461724 133.03307724 -0.11310768 C134.47267228 -0.11338407 135.91226813 -0.11539001 137.35185814 -0.11920547 C139.30894233 -0.12414051 141.26604004 -0.12239807 143.22312927 -0.12025452 C144.32098472 -0.12117631 145.41884016 -0.1220981 146.54996395 -0.12304783 C149 0 149 0 150 1 C150.09492722 3.34253782 150.12559791 5.65546104 150.11352539 7.99829102 C150.11367142 8.72995483 150.11381744 9.46161865 150.1139679 10.2154541 C150.11326867 12.64496784 150.10547585 15.07440583 150.09765625 17.50390625 C150.0957921 19.18399514 150.09436819 20.86408457 150.09336853 22.54417419 C150.08954307 26.97473643 150.07971256 31.4052661 150.06866455 35.83581543 C150.05845103 40.35342976 150.05387104 44.87104934 150.04882812 49.38867188 C150.03809031 58.25912893 150.02101356 67.12956176 150 76 C146.18751574 76.02887236 142.3750593 76.04675492 138.5625 76.0625 C137.47388672 76.07087891 136.38527344 76.07925781 135.26367188 76.08789062 C134.22919922 76.09111328 133.19472656 76.09433594 132.12890625 76.09765625 C131.17056885 76.10289307 130.21223145 76.10812988 129.22485352 76.11352539 C127 76 127 76 126 75 C126 72.36 126 69.72 126 67 C116.1 67 106.2 67 96 67 C96 69.64 96 72.28 96 75 C94 77 94 77 90.3046875 77.1953125 C88.82798332 77.1838709 87.35138199 77.15789907 85.875 77.125 C81.976875 77.063125 81.976875 77.063125 78 77 C78 84.26 78 91.52 78 99 C80.31 99 82.62 99 85 99 C86 100 86 100 86.09765625 102.06640625 C86.08605469 102.89011719 86.07445312 103.71382813 86.0625 104.5625 C86.05347656 105.38878906 86.04445313 106.21507812 86.03515625 107.06640625 C86.02355469 107.70449219 86.01195312 108.34257812 86 109 C88.64 109 91.28 109 94 109 C93.98839844 108.36191406 93.97679687 107.72382813 93.96484375 107.06640625 C93.95582031 106.24011719 93.94679688 105.41382813 93.9375 104.5625 C93.92589844 103.73878906 93.91429687 102.91507812 93.90234375 102.06640625 C94 100 94 100 95 99 C98.00331018 98.85806663 100.99217134 98.95763622 104 99 C104 102.63 104 106.26 104 110 C101.03 110 98.06 110 95 110 C95 112.31 95 114.62 95 117 C94.04287109 116.98259766 94.04287109 116.98259766 93.06640625 116.96484375 C91.82697266 116.95130859 91.82697266 116.95130859 90.5625 116.9375 C89.73878906 116.92589844 88.91507812 116.91429687 88.06640625 116.90234375 C86.00836062 116.76732652 86.00836062 116.76732652 85 118 C83.48071962 118.07179964 81.95832518 118.08392007 80.4375 118.0625 C79.19806641 118.04896484 79.19806641 118.04896484 77.93359375 118.03515625 C76.97646484 118.01775391 76.97646484 118.01775391 76 118 C76 115.69 76 113.38 76 111 C74.02 111 72.04 111 70 111 C70 115.62 70 120.24 70 125 C72.31 125 74.62 125 77 125 C77 127.97 77 130.94 77 134 C82.94 134 88.88 134 95 134 C95 136.64 95 139.28 95 142 C97.64 142 100.28 142 103 142 C103 145.3 103 148.6 103 152 C105.64 152 108.28 152 111 152 C111 154.64 111 157.28 111 160 C105.72 160 100.44 160 95 160 C95 162.64 95 165.28 95 168 C108.86 168 122.72 168 137 168 C137 173.94 137 179.88 137 186 C133.7 186 130.4 186 127 186 C127 188.64 127 191.28 127 194 C132.94 194 138.88 194 145 194 C145 191.36 145 188.72 145 186 C147.64 186 150.28 186 153 186 C153 188.97 153 191.94 153 195 C150.69 195 148.38 195 146 195 C146.0309375 196.7015625 146.0309375 196.7015625 146.0625 198.4375 C146 202 146 202 145 203 C142.13732433 203.07325168 139.299281 203.09238205 136.4375 203.0625 C135.63119141 203.05798828 134.82488281 203.05347656 133.99414062 203.04882812 C131.99606244 203.03700518 129.99802217 203.01906914 128 203 C127.67 208.28 127.34 213.56 127 219 C122.46095634 219.02291161 117.92211198 219.04283781 113.38305664 219.05493164 C111.83780234 219.0599714 110.29255284 219.0668032 108.74731445 219.07543945 C106.53074971 219.08752076 104.31424782 219.09323173 102.09765625 219.09765625 C101.05545677 219.10539818 101.05545677 219.10539818 99.99220276 219.11329651 C98.3277067 219.11349277 96.66334501 219.06189129 95 219 C94 218 94 218 93.9375 214.4375 C93.958125 213.303125 93.97875 212.16875 94 211 C92.78441406 211.01160156 91.56882812 211.02320313 90.31640625 211.03515625 C88.73177236 211.04453278 87.14713682 211.05363313 85.5625 211.0625 C84.76005859 211.07087891 83.95761719 211.07925781 83.13085938 211.08789062 C81.08704779 211.0965143 79.04316098 211.0522815 77 211 C76 210 76 210 75.9375 206.4375 C75.958125 205.303125 75.97875 204.16875 76 203 C73.36 203 70.72 203 68 203 C68 194.42 68 185.84 68 177 C62.39 177 56.78 177 51 177 C51 171.39 51 165.78 51 160 C54.3 160 57.6 160 61 160 C61 157.69 61 155.38 61 153 C59.52031676 153.14049518 58.04125484 153.28754826 56.5625 153.4375 C55.73878906 153.51871094 54.91507813 153.59992188 54.06640625 153.68359375 C52.01337975 153.78930815 52.01337975 153.78930815 51 155 C49.40389018 155.09333705 47.80366572 155.11745372 46.20483398 155.11352539 C45.18385117 155.11344986 44.16286835 155.11337433 43.11094666 155.11329651 C42.0005452 155.10813522 40.89014374 155.10297394 39.74609375 155.09765625 C38.61551041 155.0962413 37.48492706 155.09482635 36.32008362 155.09336853 C32.69252935 155.08775019 29.06503576 155.07519458 25.4375 155.0625 C22.98502693 155.05748736 20.5325529 155.05292405 18.08007812 155.04882812 C12.05336455 155.0377748 6.02668661 155.02101884 0 155 C0 153.35 0 151.7 0 150 C20.46 150 40.92 150 62 150 C62 150.66 62 151.32 62 152 C64.31 152 66.62 152 69 152 C69 159.59 69 167.18 69 175 C71.64 175 74.28 175 77 175 C77 169.72 77 164.44 77 159 C82.61 159 88.22 159 94 159 C94 157.02 94 155.04 94 153 C88.39 153 82.78 153 77 153 C77 149.37 77 145.74 77 142 C74.03 142 71.06 142 68 142 C68 137.05 68 132.1 68 127 C63.05 127 58.1 127 53 127 C53 128.98 53 130.96 53 133 C53.66 133 54.32 133 55 133 C55 133.66 55 134.32 55 135 C56.98 135 58.96 135 61 135 C61 138.3 61 141.6 61 145 C42.52 145 24.04 145 5 145 C5.33 143.35 5.66 141.7 6 140 C7.32 140 8.64 140 10 140 C10 138.35 10 136.7 10 135 C11.65 135 13.3 135 15 135 C15 133.35 15 131.7 15 130 C16.65 130 18.3 130 20 130 C20 128.35 20 126.7 20 125 C29.9 125 39.8 125 50 125 C50 111.47 50 97.94 50 84 C47.03 84.495 47.03 84.495 44 85 C39.38 85 34.76 85 30 85 C30 65.53 30 46.06 30 26 C30.66 26 31.32 26 32 26 C32 22.37 32 18.74 32 15 C34.31 15.33 36.62 15.66 39 16 C39.125 22.625 39.125 22.625 38 26 C64.07 26 90.14 26 117 26 C117 36.23 117 46.46 117 57 C120.3 57 123.6 57 127 57 C128 58 128 58 128.0625 61.5625 C128.041875 62.696875 128.02125 63.83125 128 65 C131.63 65 135.26 65 139 65 C139 47.18 139 29.36 139 11 C96.76 11 54.52 11 11 11 C11 35.42 11 59.84 11 85 C10.67 85 10.34 85 10 85 C10 60.25 10 35.5 10 10 C52.9 10 95.8 10 140 10 C140 28.48 140 46.96 140 66 C136.04 66 132.08 66 128 66 C128 68.97 128 71.94 128 75 C135.92 74.505 135.92 74.505 144 74 C144.33 51.56 144.66 29.12 145 6 C99.13 6 53.26 6 6 6 C6 33.72 6 61.44 6 90 C18.21 90 30.42 90 43 90 C43 94.95 43 99.9 43 105 C28.81 105 14.62 105 0 105 C0 70.35 0 35.7 0 0 Z " fill="#12100B" transform="translate(74,80)"/>
<path d="M0 0 C9.9 0 19.8 0 30 0 C30.495 3.96 30.495 3.96 31 8 C38.59 8.33 46.18 8.66 54 9 C52.68 9.33 51.36 9.66 50 10 C50 14.62 50 19.24 50 24 C52.64 24 55.28 24 58 24 C59.64176774 27.28353549 59.18454039 30.89519638 59.1875 34.5 C59.19974609 35.28503906 59.21199219 36.07007813 59.22460938 36.87890625 C59.22986254 38.92063726 59.1222018 40.96192251 59 43 C57 45 57 45 52 46 C51.67 52.6 51.34 59.2 51 66 C52.65 66 54.3 66 56 66 C56 61.05 56 56.1 56 51 C58.31 50.34 60.62 49.68 63 49 C63.33 38.11 63.66 27.22 64 16 C68.29 16 72.58 16 77 16 C77.04959611 22.13809036 77.08581249 28.27606293 77.10986328 34.41430664 C77.11989427 36.50059034 77.13352226 38.58686008 77.15087891 40.6730957 C77.17525494 43.67923438 77.18651236 46.68518645 77.1953125 49.69140625 C77.20563507 50.61772354 77.21595764 51.54404083 77.22659302 52.49842834 C77.22749151 57.73480568 76.71440648 62.04364493 75 67 C76.32 67 77.64 67 79 67 C79 68.98 79 70.96 79 73 C80.65 73 82.3 73 84 73 C84 71.35 84 69.7 84 68 C87.3 68 90.6 68 94 68 C94 69.65 94 71.3 94 73 C95.65 73 97.3 73 99 73 C99 78.28 99 83.56 99 89 C91.74 89 84.48 89 77 89 C77 92.63 77 96.26 77 100 C76 101 76 101 73.49609375 101.09765625 C72.48675781 101.08605469 71.47742188 101.07445312 70.4375 101.0625 C69.42558594 101.05347656 68.41367188 101.04445313 67.37109375 101.03515625 C66.58863281 101.02355469 65.80617188 101.01195312 65 101 C65 103.64 65 106.28 65 109 C62.69 109 60.38 109 58 109 C58 117.91 58 126.82 58 136 C56.02 136.33 54.04 136.66 52 137 C51.01 139.97 51.01 139.97 50 143 C43.73 143.33 37.46 143.66 31 144 C31.495 140.04 31.495 140.04 32 136 C37.61 135.67 43.22 135.34 49 135 C49.33 132.69 49.66 130.38 50 128 C52.31 128 54.62 128 57 128 C57 125.03 57 122.06 57 119 C54.36 119 51.72 119 49 119 C49 121.64 49 124.28 49 127 C43.06 127 37.12 127 31 127 C31 124.36 31 121.72 31 119 C34.3 119 37.6 119 41 119 C41 113.06 41 107.12 41 101 C27.14 101 13.28 101 -1 101 C-1 98.36 -1 95.72 -1 93 C4.28 93 9.56 93 15 93 C15 90.36 15 87.72 15 85 C12.36 85 9.72 85 7 85 C7 81.7 7 78.4 7 75 C4.36 75 1.72 75 -1 75 C-1 72.36 -1 69.72 -1 67 C-6.94 67 -12.88 67 -19 67 C-19 64.03 -19 61.06 -19 58 C-21.31 58 -23.62 58 -26 58 C-26 53.38 -26 48.76 -26 44 C-24.02 44 -22.04 44 -20 44 C-20 46.31 -20 48.62 -20 51 C-17.03 51 -14.06 51 -11 51 C-11 48.36 -11 45.72 -11 43 C-10.67 43 -10.34 43 -10 43 C-10 45.31 -10 47.62 -10 50 C-7.03 50 -4.06 50 -1 50 C-1 47.69 -1 45.38 -1 43 C1.97 43 4.94 43 8 43 C8 39.37 8 35.74 8 32 C3.545 32.495 3.545 32.495 -1 33 C-1.33 35.97 -1.66 38.94 -2 42 C-4.64 42 -7.28 42 -10 42 C-10.33 39.03 -10.66 36.06 -11 33 C-13.31 32.67 -15.62 32.34 -18 32 C-18 24.74 -18 17.48 -18 10 C-10.0625 9.5625 -10.0625 9.5625 -7.55883789 9.43188477 C-3.97955708 9.53795177 -3.97955708 9.53795177 -1 8 C-0.67 5.36 -0.34 2.72 0 0 Z " fill="#387108" transform="translate(170,147)"/>
<path d="M0 0 C0.66 0 1.32 0 2 0 C2 1.65 2 3.3 2 5 C9.26 5 16.52 5 24 5 C24 5.33 24 5.66 24 6 C16.41 6 8.82 6 1 6 C1 7.65 1 9.3 1 11 C-0.65 11 -2.3 11 -4 11 C-4 12.65 -4 14.3 -4 16 C-5.65 16 -7.3 16 -9 16 C-9 17.65 -9 19.3 -9 21 C-10.32 21.33 -11.64 21.66 -13 22 C-13.33 23.32 -13.66 24.64 -14 26 C4.48 26 22.96 26 42 26 C42 22.7 42 19.4 42 16 C40.02 16 38.04 16 36 16 C36 15.34 36 14.68 36 14 C35.34 14 34.68 14 34 14 C34 12.02 34 10.04 34 8 C38.95 8 43.9 8 49 8 C49 12.95 49 17.9 49 23 C51.97 23 54.94 23 58 23 C58 26.63 58 30.26 58 34 C63.61 34 69.22 34 75 34 C75 35.98 75 37.96 75 40 C69.39 40 63.78 40 58 40 C58 45.28 58 50.56 58 56 C55.36 56 52.72 56 50 56 C50 48.41 50 40.82 50 33 C47.69 33 45.38 33 43 33 C43 32.34 43 31.68 43 31 C22.54 31 2.08 31 -19 31 C-19 32.65 -19 34.3 -19 36 C-11.7550005 35.8827136 -4.51015987 35.75787765 2.73461914 35.62768555 C5.20138569 35.58426057 7.66818378 35.54259128 10.13500977 35.50268555 C13.67213466 35.44516555 17.20909966 35.38141925 20.74609375 35.31640625 C21.85649521 35.29969376 22.96689667 35.28298126 24.11094666 35.26576233 C25.13192947 35.24581711 26.15291229 35.22587189 27.20483398 35.20532227 C28.56051735 35.18200584 28.56051735 35.18200584 29.94358826 35.15821838 C31.99194101 35.22498543 31.99194101 35.22498543 33 34 C34.51928038 33.92820036 36.04167482 33.91607993 37.5625 33.9375 C38.38878906 33.94652344 39.21507812 33.95554688 40.06640625 33.96484375 C40.70449219 33.97644531 41.34257812 33.98804688 42 34 C42 36.31 42 38.62 42 41 C38.7 41 35.4 41 32 41 C32 46.61 32 52.22 32 58 C37.61 58 43.22 58 49 58 C49 66.58 49 75.16 49 84 C51.64 84 54.28 84 57 84 C57.495 87.465 57.495 87.465 58 91 C63.61 91.33 69.22 91.66 75 92 C75.495 95.465 75.495 95.465 76 99 C91.84 99.495 91.84 99.495 108 100 C108 97.36 108 94.72 108 92 C111.29960141 90.3501993 114.99127884 90.61741639 118.625 90.4375 C119.82769531 90.37272461 119.82769531 90.37272461 121.0546875 90.30664062 C123.0362511 90.20048543 125.01810271 90.09973145 127 90 C127.66 88.02 128.32 86.04 129 84 C130.98 84 132.96 84 135 84 C135 75.09 135 66.18 135 57 C137.31 57 139.62 57 142 57 C142 54.36 142 51.72 142 49 C147.94 48.505 147.94 48.505 154 48 C154.09765625 55.71484375 154.09765625 55.71484375 154 58 C153 59 153 59 151.15234375 59.09765625 C149.1015625 59.06510417 147.05078125 59.03255208 145 59 C145.01047363 59.68102783 145.02094727 60.36205566 145.03173828 61.0637207 C145.07328878 64.14660966 145.09932311 67.22943971 145.125 70.3125 C145.14175781 71.38435547 145.15851563 72.45621094 145.17578125 73.56054688 C145.18222656 74.58857422 145.18867188 75.61660156 145.1953125 76.67578125 C145.20578613 77.62364502 145.21625977 78.57150879 145.22705078 79.5480957 C145 82 145 82 143 85 C139.375 85.1875 139.375 85.1875 136 85 C136 86.32 136 87.64 136 89 C136.928125 88.938125 137.85625 88.87625 138.8125 88.8125 C142 89 142 89 143.67871094 90.26538086 C145.96769483 93.27041238 145.34612038 96.94296709 145.25 100.5625 C145.24484375 101.34302734 145.2396875 102.12355469 145.234375 102.92773438 C145.15482198 108.69035603 145.15482198 108.69035603 144 111 C141.35139573 111.59355614 138.70802678 111.74209269 136 112 C136 114.31 136 116.62 136 119 C130.72 119 125.44 119 120 119 C120 119.66 120 120.32 120 121 C101.52 121 83.04 121 64 121 C64 120.34 64 119.68 64 119 C62.39318359 119.01740234 62.39318359 119.01740234 60.75390625 119.03515625 C59.35677257 119.04453299 57.95963701 119.05363331 56.5625 119.0625 C55.85544922 119.07087891 55.14839844 119.07925781 54.41992188 119.08789062 C52.61306441 119.09653588 50.80612397 119.05220011 49 119 C48 118 48 118 47.9375 114.9375 C47.958125 113.968125 47.97875 112.99875 48 112 C46.865625 111.855625 45.73125 111.71125 44.5625 111.5625 C41 111 41 111 40 110 C39.72313113 106.86257232 39.76826371 103.71070723 39.75 100.5625 C39.729375 99.67755859 39.70875 98.79261719 39.6875 97.88085938 C39.67976563 96.61145508 39.67976563 96.61145508 39.671875 95.31640625 C39.6625293 94.53724854 39.65318359 93.75809082 39.64355469 92.95532227 C39.81999512 91.98743774 39.81999512 91.98743774 40 91 C43.22791555 88.8480563 44.28400809 88.79913557 48 89 C48 87.68 48 86.36 48 85 C46.78441406 85.01160156 45.56882812 85.02320313 44.31640625 85.03515625 C42.73177236 85.04453278 41.14713682 85.05363313 39.5625 85.0625 C38.35883789 85.07506836 38.35883789 85.07506836 37.13085938 85.08789062 C35.08704779 85.0965143 33.04316098 85.0522815 31 85 C30 84 30 84 29.9375 80.4375 C29.958125 79.303125 29.97875 78.16875 30 77 C28.865625 77.020625 27.73125 77.04125 26.5625 77.0625 C23 77 23 77 22 76 C21.91153166 73.47931819 21.88465476 70.98545583 21.90234375 68.46484375 C21.90335083 67.79747192 21.90435791 67.1301001 21.90539551 66.44250488 C21.91064192 63.9408192 21.92460309 61.43915794 21.9375 58.9375 C21.9684375 50.5534375 21.9684375 50.5534375 22 42 C8.14 42 -5.72 42 -20 42 C-20 40.68 -20 39.36 -20 38 C-21.65 37.67 -23.3 37.34 -25 37 C-25 33.04 -25 29.08 -25 25 C-23.68 24.67 -22.36 24.34 -21 24 C-20.67 22.68 -20.34 21.36 -20 20 C-18.68 19.67 -17.36 19.34 -16 19 C-15.67 17.68 -15.34 16.36 -15 15 C-13.35 14.67 -11.7 14.34 -10 14 C-10 12.68 -10 11.36 -10 10 C-8.68 9.67 -7.36 9.34 -6 9 C-5.67 7.68 -5.34 6.36 -5 5 C-3.68 4.67 -2.36 4.34 -1 4 C-0.67 2.68 -0.34 1.36 0 0 Z " fill="#0C0B09" transform="translate(93,199)"/>
<path d="M0 0 C20.46 0 40.92 0 62 0 C62 0.66 62 1.32 62 2 C64.31 2 66.62 2 69 2 C69 9.59 69 17.18 69 25 C71.64 25 74.28 25 77 25 C77 19.72 77 14.44 77 9 C82.61 9 88.22 9 94 9 C94 7.02 94 5.04 94 3 C88.39 3 82.78 3 77 3 C77 2.67 77 2.34 77 2 C82.94 2 88.88 2 95 2 C95 7.28 95 12.56 95 18 C108.86 18 122.72 18 137 18 C137 23.94 137 29.88 137 36 C133.7 36 130.4 36 127 36 C127 38.64 127 41.28 127 44 C132.94 44 138.88 44 145 44 C145 41.36 145 38.72 145 36 C147.64 36 150.28 36 153 36 C153 38.97 153 41.94 153 45 C150.69 45 148.38 45 146 45 C146.0309375 46.7015625 146.0309375 46.7015625 146.0625 48.4375 C146 52 146 52 145 53 C142.13732433 53.07325168 139.299281 53.09238205 136.4375 53.0625 C135.63119141 53.05798828 134.82488281 53.05347656 133.99414062 53.04882812 C131.99606244 53.03700518 129.99802217 53.01906914 128 53 C127.67 58.28 127.34 63.56 127 69 C122.46095634 69.02291161 117.92211198 69.04283781 113.38305664 69.05493164 C111.83780234 69.0599714 110.29255284 69.0668032 108.74731445 69.07543945 C106.53074971 69.08752076 104.31424782 69.09323173 102.09765625 69.09765625 C101.05545677 69.10539818 101.05545677 69.10539818 99.99220276 69.11329651 C98.3277067 69.11349277 96.66334501 69.06189129 95 69 C94 68 94 68 93.9375 64.4375 C93.958125 63.303125 93.97875 62.16875 94 61 C92.78441406 61.01160156 91.56882812 61.02320313 90.31640625 61.03515625 C88.73177236 61.04453278 87.14713682 61.05363313 85.5625 61.0625 C84.76005859 61.07087891 83.95761719 61.07925781 83.13085938 61.08789062 C81.08704779 61.0965143 79.04316098 61.0522815 77 61 C76 60 76 60 75.9375 56.4375 C75.958125 55.303125 75.97875 54.16875 76 53 C73.36 53 70.72 53 68 53 C68 44.42 68 35.84 68 27 C62.39 27 56.78 27 51 27 C51 21.39 51 15.78 51 10 C54.3 10 57.6 10 61 10 C61 7.69 61 5.38 61 3 C59.52031676 3.14049518 58.04125484 3.28754826 56.5625 3.4375 C55.73878906 3.51871094 54.91507813 3.59992188 54.06640625 3.68359375 C52.01337975 3.78930815 52.01337975 3.78930815 51 5 C49.40389018 5.09333705 47.80366572 5.11745372 46.20483398 5.11352539 C45.18385117 5.11344986 44.16286835 5.11337433 43.11094666 5.11329651 C42.0005452 5.10813522 40.89014374 5.10297394 39.74609375 5.09765625 C38.61551041 5.0962413 37.48492706 5.09482635 36.32008362 5.09336853 C32.69252935 5.08775019 29.06503576 5.07519458 25.4375 5.0625 C22.98502693 5.05748736 20.5325529 5.05292405 18.08007812 5.04882812 C12.05336455 5.0377748 6.02668661 5.02101884 0 5 C0 3.35 0 1.7 0 0 Z " fill="#206D43" transform="translate(74,230)"/>
<path d="M0 0 C42.24 0 84.48 0 128 0 C128 17.82 128 35.64 128 54 C124.37 54 120.74 54 117 54 C116.505 50.535 116.505 50.535 116 47 C112.7 46.67 109.4 46.34 106 46 C106 35.77 106 25.54 106 15 C79.93 15 53.86 15 27 15 C27.33 11.7 27.66 8.4 28 5 C25.69 4.67 23.38 4.34 21 4 C21 7.63 21 11.26 21 15 C20.34 15 19.68 15 19 15 C19 34.47 19 53.94 19 74 C12.73 74 6.46 74 0 74 C0 49.58 0 25.16 0 0 Z " fill="#393232" transform="translate(85,91)"/>
<path d="M0 0 C1.65 0 3.3 0 5 0 C3.68 0.33 2.36 0.66 1 1 C1 5.62 1 10.24 1 15 C3.64 15 6.28 15 9 15 C10.64176774 18.28353549 10.18454039 21.89519638 10.1875 25.5 C10.19974609 26.28503906 10.21199219 27.07007813 10.22460938 27.87890625 C10.22986254 29.92063726 10.1222018 31.96192251 10 34 C8 36 8 36 3 37 C2.67 43.6 2.34 50.2 2 57 C3.65 57 5.3 57 7 57 C7 52.05 7 47.1 7 42 C9.31 41.34 11.62 40.68 14 40 C14.33 29.11 14.66 18.22 15 7 C19.29 7 23.58 7 28 7 C28.04959611 13.13809036 28.08581249 19.27606293 28.10986328 25.41430664 C28.11989427 27.50059034 28.13352226 29.58686008 28.15087891 31.6730957 C28.17525494 34.67923438 28.18651236 37.68518645 28.1953125 40.69140625 C28.20563507 41.61772354 28.21595764 42.54404083 28.22659302 43.49842834 C28.22749151 48.73480568 27.71440648 53.04364493 26 58 C27.32 58 28.64 58 30 58 C30 59.98 30 61.96 30 64 C31.65 64 33.3 64 35 64 C35 62.35 35 60.7 35 59 C38.3 59 41.6 59 45 59 C45 60.65 45 62.3 45 64 C46.65 64 48.3 64 50 64 C50 69.28 50 74.56 50 80 C42.74 80 35.48 80 28 80 C28 83.63 28 87.26 28 91 C27 92 27 92 24.49609375 92.09765625 C23.48675781 92.08605469 22.47742188 92.07445312 21.4375 92.0625 C20.42558594 92.05347656 19.41367188 92.04445313 18.37109375 92.03515625 C17.58863281 92.02355469 16.80617188 92.01195312 16 92 C16 94.64 16 97.28 16 100 C13.69 100 11.38 100 9 100 C9 108.91 9 117.82 9 127 C6.03 127.495 6.03 127.495 3 128 C2.34 129.98 1.68 131.96 1 134 C-5.27 134.33 -11.54 134.66 -18 135 C-17.505 131.04 -17.505 131.04 -17 127 C-8.585 126.505 -8.585 126.505 0 126 C0.33 123.69 0.66 121.38 1 119 C3.31 119 5.62 119 8 119 C8 116.03 8 113.06 8 110 C5.36 110 2.72 110 0 110 C0 112.64 0 115.28 0 118 C-5.94 118 -11.88 118 -18 118 C-18 115.36 -18 112.72 -18 110 C-14.7 110 -11.4 110 -8 110 C-8 104.06 -8 98.12 -8 92 C-21.86 92 -35.72 92 -50 92 C-50 89.36 -50 86.72 -50 84 C-44.39 84 -38.78 84 -33 84 C-33 81.69 -33 79.38 -33 77 C-31.02 77 -29.04 77 -27 77 C-26.67 78.98 -26.34 80.96 -26 83 C-19.73 83.33 -13.46 83.66 -7 84 C-7 75.42 -7 66.84 -7 58 C-4.69 58 -2.38 58 0 58 C0 50.08 0 42.16 0 34 C-1.98 34 -3.96 34 -6 34 C-6.99 33.505 -6.99 33.505 -8 33 C-8 30.03 -8 27.06 -8 24 C-5.03 24 -2.06 24 1 24 C1 26.97 1 29.94 1 33 C3.31 33 5.62 33 8 33 C8 27.39 8 21.78 8 16 C5.36 16 2.72 16 0 16 C0 10.72 0 5.44 0 0 Z " fill="#110F0B" transform="translate(219,156)"/>
<path d="M0 0 C37.3250878 -0.04030303 37.3250878 -0.04030303 52.91601562 -0.04882812 C63.69897942 -0.05477142 74.48193543 -0.06177392 85.26489258 -0.07543945 C93.1165955 -0.08538541 100.96829214 -0.09185322 108.82000118 -0.09408849 C112.98003452 -0.09539575 117.14004985 -0.09848255 121.30007744 -0.10573006 C125.21108412 -0.11248889 129.12206527 -0.11461724 133.03307724 -0.11310768 C134.47267228 -0.11338407 135.91226813 -0.11539001 137.35185814 -0.11920547 C139.30894233 -0.12414051 141.26604004 -0.12239807 143.22312927 -0.12025452 C144.32098472 -0.12117631 145.41884016 -0.1220981 146.54996395 -0.12304783 C149 0 149 0 150 1 C150.09492722 3.34253782 150.12559791 5.65546104 150.11352539 7.99829102 C150.11367142 8.72995483 150.11381744 9.46161865 150.1139679 10.2154541 C150.11326867 12.64496784 150.10547585 15.07440583 150.09765625 17.50390625 C150.0957921 19.18399514 150.09436819 20.86408457 150.09336853 22.54417419 C150.08954307 26.97473643 150.07971256 31.4052661 150.06866455 35.83581543 C150.05845103 40.35342976 150.05387104 44.87104934 150.04882812 49.38867188 C150.03809031 58.25912893 150.02101356 67.12956176 150 76 C148.35 76 146.7 76 145 76 C145 52.9 145 29.8 145 6 C99.13 6 53.26 6 6 6 C6 33.72 6 61.44 6 90 C18.21 90 30.42 90 43 90 C43 94.95 43 99.9 43 105 C28.81 105 14.62 105 0 105 C0 70.35 0 35.7 0 0 Z " fill="#ABABAB" transform="translate(74,80)"/>
<path d="M0 0 C2.31 0.33 4.62 0.66 7 1 C7.125 7.625 7.125 7.625 6 11 C32.07 11 58.14 11 85 11 C85 21.23 85 31.46 85 42 C83.68 42 82.36 42 81 42 C81 41.34 81 40.68 81 40 C80.01 40 79.02 40 78 40 C78 32.41 78 24.82 78 17 C75.03 17 72.06 17 69 17 C67.515 16.505 67.515 16.505 66 16 C66 15.34 66 14.68 66 14 C64.35 14 62.7 14 61 14 C61.639375 14.268125 62.27875 14.53625 62.9375 14.8125 C65 16 65 16 66 19 C64.68 19.66 63.36 20.32 62 21 C61.34 20.34 60.68 19.68 60 19 C59.505 19.495 59.505 19.495 59 20 C57.07332493 20.08748207 55.14348139 20.10697334 53.21484375 20.09765625 C52.04501953 20.09443359 50.87519531 20.09121094 49.66992188 20.08789062 C48.43822266 20.07951172 47.20652344 20.07113281 45.9375 20.0625 C44.08415039 20.05573242 44.08415039 20.05573242 42.19335938 20.04882812 C39.12885883 20.03699608 36.06445279 20.02051173 33 20 C33 19.34 33 18.68 33 18 C25.74 18.33 18.48 18.66 11 19 C16.94 19 22.88 19 29 19 C28.01 19.33 27.02 19.66 26 20 C26 24.62 26 29.24 26 34 C22.04 34 18.08 34 14 34 C14 34.66 14 35.32 14 36 C32.15 36 50.3 36 69 36 C69 37.98 69 39.96 69 42 C67.02 42 65.04 42 63 42 C63 43.32 63 44.64 63 46 C61.74703125 46.04898438 60.4940625 46.09796875 59.203125 46.1484375 C57.55206179 46.22348583 55.90102119 46.29903277 54.25 46.375 C53.0125 46.42140625 53.0125 46.42140625 51.75 46.46875 C50.95078125 46.50742188 50.1515625 46.54609375 49.328125 46.5859375 C48.5949707 46.6173584 47.86181641 46.6487793 47.10644531 46.68115234 C44.92021232 46.89937341 44.92021232 46.89937341 42.85449219 48.08837891 C42.24250977 48.38921387 41.63052734 48.69004883 41 49 C40.01 48.505 40.01 48.505 39 48 C39 45.69 39 43.38 39 41 C40.66611905 40.957279 42.33382885 40.95936168 44 41 C44.33 41.33 44.66 41.66 45 42 C46.99958364 42.04080783 49.00045254 42.04254356 51 42 C51 40.68 51 39.36 51 38 C36.81 38 22.62 38 8 38 C8 36.35 8 34.7 8 33 C8.99 33 9.98 33 11 33 C10.01 32.67 9.02 32.34 8 32 C7.67 44.21 7.34 56.42 7 69 C2.545 69.495 2.545 69.495 -2 70 C-2 50.53 -2 31.06 -2 11 C-1.34 11 -0.68 11 0 11 C0 7.37 0 3.74 0 0 Z " fill="#714F3F" transform="translate(106,95)"/>
<path d="M0 0 C3.3 0 6.6 0 10 0 C10 2.64 10 5.28 10 8 C23.86 8 37.72 8 52 8 C52 13.94 52 19.88 52 26 C48.7 26 45.4 26 42 26 C42 28.64 42 31.28 42 34 C47.94 34 53.88 34 60 34 C60 31.36 60 28.72 60 26 C62.64 26 65.28 26 68 26 C68 28.97 68 31.94 68 35 C65.69 35 63.38 35 61 35 C61.020625 36.134375 61.04125 37.26875 61.0625 38.4375 C61 42 61 42 60 43 C57.13732433 43.07325168 54.299281 43.09238205 51.4375 43.0625 C50.63119141 43.05798828 49.82488281 43.05347656 48.99414062 43.04882812 C46.99606244 43.03700518 44.99802217 43.01906914 43 43 C43.020625 44.134375 43.04125 45.26875 43.0625 46.4375 C43 50 43 50 42 51 C40.21928754 51.08726223 38.4351686 51.10699041 36.65234375 51.09765625 C35.57275391 51.09443359 34.49316406 51.09121094 33.38085938 51.08789062 C32.24455078 51.07951172 31.10824219 51.07113281 29.9375 51.0625 C28.79732422 51.05798828 27.65714844 51.05347656 26.48242188 51.04882812 C23.65489649 51.03699747 20.8274736 51.0205141 18 51 C18 48.36 18 45.72 18 43 C12.06 43 6.12 43 0 43 C0 40.03 0 37.06 0 34 C6.27 34 12.54 34 19 34 C19 36.31 19 38.62 19 41 C26.26 41 33.52 41 41 41 C41 38.69 41 36.38 41 34 C36.05 34 31.1 34 26 34 C26 31.36 26 28.72 26 26 C20.39 26 14.78 26 9 26 C9 20.39 9 14.78 9 9 C6.03 9 3.06 9 0 9 C0 6.03 0 3.06 0 0 Z " fill="#38D35C" transform="translate(159,240)"/>
<path d="M0 0 C5.94 0 11.88 0 18 0 C19.97349374 3.94698749 20.24970477 5.45192088 20.1875 9.6875 C20.18105469 10.66074219 20.17460937 11.63398438 20.16796875 12.63671875 C20 15 20 15 19 16 C17.14712498 16.07226502 15.29166122 16.0838122 13.4375 16.0625 C12.42558594 16.05347656 11.41367188 16.04445312 10.37109375 16.03515625 C9.58863281 16.02355469 8.80617188 16.01195312 8 16 C8 18.64 8 21.28 8 24 C5.69 24 3.38 24 1 24 C1 32.91 1 41.82 1 51 C-1.97 51.495 -1.97 51.495 -5 52 C-5.66 53.98 -6.32 55.96 -7 58 C-13.27 58.33 -19.54 58.66 -26 59 C-25.67 56.36 -25.34 53.72 -25 51 C-16.585 50.505 -16.585 50.505 -8 50 C-7.67 47.69 -7.34 45.38 -7 43 C-4.69 43 -2.38 43 0 43 C0 40.03 0 37.06 0 34 C-2.64 34 -5.28 34 -8 34 C-8 36.64 -8 39.28 -8 42 C-13.94 42 -19.88 42 -26 42 C-26 39.36 -26 36.72 -26 34 C-22.7 34 -19.4 34 -16 34 C-16 28.06 -16 22.12 -16 16 C-29.86 16 -43.72 16 -58 16 C-58 13.36 -58 10.72 -58 8 C-52.39 8 -46.78 8 -41 8 C-41 5.69 -41 3.38 -41 1 C-39.02 1 -37.04 1 -35 1 C-34.67 2.98 -34.34 4.96 -34 7 C-20.635 7.495 -20.635 7.495 -7 8 C-7 13.28 -7 18.56 -7 24 C-4.69 24 -2.38 24 0 24 C0 16.08 0 8.16 0 0 Z " fill="#1F3921" transform="translate(227,232)"/>
<path d="M0 0 C3.3 0 6.6 0 10 0 C10.33 8.25 10.66 16.5 11 25 C12.98 25 14.96 25 17 25 C17 22.03 17 19.06 17 16 C19.97 16 22.94 16 26 16 C26 19.3 26 22.6 26 26 C28.64 26 31.28 26 34 26 C34 28.64 34 31.28 34 34 C31.03 34 28.06 34 25 34 C25 31.69 25 29.38 25 27 C23.02 27 21.04 27 19 27 C19 31.62 19 36.24 19 41 C21.31 41 23.62 41 26 41 C26 43.97 26 46.94 26 50 C31.94 50 37.88 50 44 50 C44 52.64 44 55.28 44 58 C46.64 58 49.28 58 52 58 C52 61.3 52 64.6 52 68 C54.64 68 57.28 68 60 68 C60 70.64 60 73.28 60 76 C54.72 76 49.44 76 44 76 C44 73.36 44 70.72 44 68 C38.06 68 32.12 68 26 68 C26 64.7 26 61.4 26 58 C23.36 58 20.72 58 18 58 C18 52.72 18 47.44 18 42 C12.77936725 42.03957157 12.77936725 42.03957157 7.55883789 42.09008789 C5.70566241 42.09723945 3.85250692 42.0502852 2 42 C0.3343715 40.3343715 0.77292841 38.28757677 0.68359375 35.99609375 C0.64161865 34.95187256 0.59964355 33.90765137 0.55639648 32.83178711 C0.49754272 31.15161499 0.49754272 31.15161499 0.4375 29.4375 C0.3950415 28.30900635 0.35258301 27.1805127 0.30883789 26.01782227 C0.00134074 17.34046301 -0.11644946 8.68195407 0 0 Z " fill="#984A14" transform="translate(125,164)"/>
<path d="M0 0 C9.9 0 19.8 0 30 0 C30.495 3.96 30.495 3.96 31 8 C31.71027344 8.06058594 32.42054688 8.12117187 33.15234375 8.18359375 C34.07144531 8.26738281 34.99054688 8.35117188 35.9375 8.4375 C37.31228516 8.55931641 37.31228516 8.55931641 38.71484375 8.68359375 C41 9 41 9 42 10 C42 12.31 42 14.62 42 17 C33.09 17 24.18 17 15 17 C15 19.64 15 22.28 15 25 C9.72 25 4.44 25 -1 25 C-1.33 30.61 -1.66 36.22 -2 42 C-4.64 42 -7.28 42 -10 42 C-10.33 39.03 -10.66 36.06 -11 33 C-13.31 32.67 -15.62 32.34 -18 32 C-18 24.74 -18 17.48 -18 10 C-10.0625 9.5625 -10.0625 9.5625 -7.55883789 9.43188477 C-3.97955708 9.53795177 -3.97955708 9.53795177 -1 8 C-0.67 5.36 -0.34 2.72 0 0 Z " fill="#326B05" transform="translate(170,147)"/>
<path d="M0 0 C2.64 0 5.28 0 8 0 C8 5.28 8 10.56 8 16 C10.64 16 13.28 16 16 16 C16 21.61 16 27.22 16 33 C13.69 33 11.38 33 9 33 C9 30.03 9 27.06 9 24 C6.03 24 3.06 24 0 24 C0 26.97 0 29.94 0 33 C-10.89 33 -21.78 33 -33 33 C-33 29.7 -33 26.4 -33 23 C-35.97 23 -38.94 23 -42 23 C-42 20.69 -42 18.38 -42 16 C-36.72 16 -31.44 16 -26 16 C-26 13.36 -26 10.72 -26 8 C-17.09 8 -8.18 8 1 8 C0.505 4.04 0.505 4.04 0 0 Z " fill="#306605" transform="translate(211,156)"/>
<path d="M0 0 C6.6 0 13.2 0 20 0 C20 17.82 20 35.64 20 54 C16.37 54 12.74 54 9 54 C8.67 51.69 8.34 49.38 8 47 C5.03 46.67 2.06 46.34 -1 46 C-1.024644 39.60962203 -1.04283317 33.21927148 -1.05493164 26.82885742 C-1.05997308 24.65307127 -1.06680607 22.47728853 -1.07543945 20.30151367 C-1.08751338 17.18146933 -1.09323005 14.06146962 -1.09765625 10.94140625 C-1.10281754 9.96224747 -1.10797882 8.98308868 -1.11329651 7.97425842 C-1.11337204 7.07340012 -1.11344757 6.17254181 -1.11352539 5.24438477 C-1.115746 4.44718521 -1.11796661 3.64998566 -1.12025452 2.82862854 C-1 1 -1 1 0 0 Z " fill="#343434" transform="translate(193,91)"/>
<path d="M0 0 C0.33 0 0.66 0 1 0 C1 3.96 1 7.92 1 12 C2.98 12 4.96 12 7 12 C5.125 13.0625 5.125 13.0625 3 14 C2.34 13.67 1.68 13.34 1 13 C1 14.65 1 16.3 1 18 C1.86334961 17.83773926 2.72669922 17.67547852 3.61621094 17.50830078 C6.85254648 17.02214994 9.87169722 16.87074621 13.140625 16.8671875 C14.29433594 16.86589844 15.44804687 16.86460937 16.63671875 16.86328125 C18.42529297 16.86908203 18.42529297 16.86908203 20.25 16.875 C22.01537109 16.86919922 22.01537109 16.86919922 23.81640625 16.86328125 C30.60701481 16.87083476 37.26068317 17.15227505 44 18 C44 19.32 44 20.64 44 22 C42.02 22 40.04 22 38 22 C37.67 22.66 37.34 23.32 37 24 C37 23.01 37 22.02 37 21 C36.01 21.33 35.02 21.66 34 22 C33.34 21.67 32.68 21.34 32 21 C32.185625 21.598125 32.37125 22.19625 32.5625 22.8125 C33 25 33 25 32 28 C33.65 28 35.3 28 37 28 C37.495 26.515 37.495 26.515 38 25 C38.7425 25.165 39.485 25.33 40.25 25.5 C43.19006578 26.11925696 43.19006578 26.11925696 47 26 C47 26.66 47 27.32 47 28 C49.64 28 52.28 28 55 28 C55 28.66 55 29.32 55 30 C49.06 30 43.12 30 37 30 C37 33.3 37 36.6 37 40 C34.69 40 32.38 40 30 40 C30 41.98 30 43.96 30 46 C27.69 46 25.38 46 23 46 C23 44.35 23 42.7 23 41 C21.18706911 41.14037521 19.3746557 41.28744889 17.5625 41.4375 C16.55316406 41.51871094 15.54382813 41.59992188 14.50390625 41.68359375 C12.06359221 41.73211468 12.06359221 41.73211468 11 43 C10.95936168 44.66617115 10.957279 46.33388095 11 48 C9.865625 48.144375 8.73125 48.28875 7.5625 48.4375 C4.19222799 48.61171478 4.19222799 48.61171478 3 50 C1.00041636 50.04080783 -1.00045254 50.04254356 -3 50 C-1.515 49.505 -1.515 49.505 0 49 C0 32.83 0 16.66 0 0 Z " fill="#73533B" transform="translate(113,115)"/>
<path d="M0 0 C1.65 0 3.3 0 5 0 C5 0.66 5 1.32 5 2 C8.96 2.33 12.92 2.66 17 3 C17 10.59 17 18.18 17 26 C17.99 26 18.98 26 20 26 C20 26.66 20 27.32 20 28 C21.98 28.495 21.98 28.495 24 29 C16.74 29 9.48 29 2 29 C2 28.67 2 28.34 2 28 C3.98 28 5.96 28 8 28 C8 26.02 8 24.04 8 22 C-10.15 22 -28.3 22 -47 22 C-47 21.34 -47 20.68 -47 20 C-43.04 20 -39.08 20 -35 20 C-35 15.38 -35 10.76 -35 6 C-36.10859375 6.02320312 -37.2171875 6.04640625 -38.359375 6.0703125 C-39.82290992 6.08907577 -41.28645214 6.10727537 -42.75 6.125 C-43.47960937 6.14175781 -44.20921875 6.15851563 -44.9609375 6.17578125 C-49.13521398 6.21372922 -51.16970546 5.91514727 -55 4 C-46.09 4 -37.18 4 -28 4 C-28 4.66 -28 5.32 -28 6 C-23.70778769 5.89053657 -19.4164851 5.75981105 -15.125 5.625 C-13.90167969 5.5940625 -12.67835938 5.563125 -11.41796875 5.53125 C-9.66806641 5.47324219 -9.66806641 5.47324219 -7.8828125 5.4140625 C-6.26463623 5.36693115 -6.26463623 5.36693115 -4.61376953 5.31884766 C-1.84238346 5.25323678 -1.84238346 5.25323678 0 3 C0.495 4.485 0.495 4.485 1 6 C1.99 5.67 2.98 5.34 4 5 C3.505 3.515 3.505 3.515 3 2 C2.01 2 1.02 2 0 2 C0 1.34 0 0.68 0 0 Z " fill="#73533A" transform="translate(167,109)"/>
<path d="M0 0 C2.31 0.33 4.62 0.66 7 1 C7.125 7.625 7.125 7.625 6 11 C32.07 11 58.14 11 85 11 C85 21.23 85 31.46 85 42 C83.68 42 82.36 42 81 42 C81 41.34 81 40.68 81 40 C80.01 40 79.02 40 78 40 C78 32.41 78 24.82 78 17 C75.03 17 72.06 17 69 17 C68.34 16.67 67.68 16.34 67 16 C67 14.68 67 13.36 67 12 C64.69 12 62.38 12 60 12 C60 13.32 60 14.64 60 16 C56.85069107 17.04976964 54.61185544 17.10131595 51.3125 17.0625 C50.31863281 17.05347656 49.32476562 17.04445313 48.30078125 17.03515625 C47.16189453 17.01775391 47.16189453 17.01775391 46 17 C46.99 16.34 47.98 15.68 49 15 C49 14.01 49 13.02 49 12 C48.02160156 12.10828125 48.02160156 12.10828125 47.0234375 12.21875 C42.3262944 12.71756166 37.73147344 13.12451246 33 13 C32.67 14.32 32.34 15.64 32 17 C28.37 17 24.74 17 21 17 C21 16.01 21 15.02 21 14 C20.01 14 19.02 14 18 14 C18 14.99 18 15.98 18 17 C13.38 17 8.76 17 4 17 C4 24.26 4 31.52 4 39 C3.01 39 2.02 39 1 39 C1 42.63 1 46.26 1 50 C2.98 49.505 2.98 49.505 5 49 C5.02888146 52.31248187 5.04675799 55.62493167 5.0625 58.9375 C5.07087891 59.88302734 5.07925781 60.82855469 5.08789062 61.80273438 C5.09111328 62.70185547 5.09433594 63.60097656 5.09765625 64.52734375 C5.10289307 65.35999756 5.10812988 66.19265137 5.11352539 67.05053711 C5 69 5 69 4 70 C2.02 70 0.04 70 -2 70 C-2 50.53 -2 31.06 -2 11 C-1.34 11 -0.68 11 0 11 C0 7.37 0 3.74 0 0 Z " fill="#AC835F" transform="translate(106,95)"/>
<path d="M0 0 C20.46 0 40.92 0 62 0 C62 0.66 62 1.32 62 2 C64.31 2 66.62 2 69 2 C69 9.59 69 17.18 69 25 C71.64 25 74.28 25 77 25 C77 19.72 77 14.44 77 9 C82.61 9 88.22 9 94 9 C94 7.02 94 5.04 94 3 C88.39 3 82.78 3 77 3 C77 2.67 77 2.34 77 2 C82.94 2 88.88 2 95 2 C95 4.64 95 7.28 95 10 C86.585 10.495 86.585 10.495 78 11 C78 15.95 78 20.9 78 26 C75.03 26 72.06 26 69 26 C69.10828125 27.07314453 69.10828125 27.07314453 69.21875 28.16796875 C69.92965607 35.80033532 70.11123156 43.3373816 70 51 C72.64 51 75.28 51 78 51 C78 53.64 78 56.28 78 59 C83.94 59 89.88 59 96 59 C96 61.64 96 64.28 96 67 C105.9 67 115.8 67 126 67 C126 65.02 126 63.04 126 61 C126.33 61 126.66 61 127 61 C127 63.64 127 66.28 127 69 C122.46102295 69.02465392 117.92208457 69.04283789 113.38305664 69.05493164 C111.83780234 69.0599714 110.29255284 69.0668032 108.74731445 69.07543945 C106.53074971 69.08752076 104.31424782 69.09323173 102.09765625 69.09765625 C101.05545677 69.10539818 101.05545677 69.10539818 99.99220276 69.11329651 C98.3277067 69.11349277 96.66334501 69.06189129 95 69 C94 68 94 68 93.9375 64.4375 C93.958125 63.303125 93.97875 62.16875 94 61 C92.78441406 61.01160156 91.56882812 61.02320313 90.31640625 61.03515625 C88.73177236 61.04453278 87.14713682 61.05363313 85.5625 61.0625 C84.76005859 61.07087891 83.95761719 61.07925781 83.13085938 61.08789062 C81.08704779 61.0965143 79.04316098 61.0522815 77 61 C76 60 76 60 75.9375 56.4375 C75.958125 55.303125 75.97875 54.16875 76 53 C73.36 53 70.72 53 68 53 C68 44.42 68 35.84 68 27 C62.39 27 56.78 27 51 27 C51 21.39 51 15.78 51 10 C54.3 10 57.6 10 61 10 C61 7.69 61 5.38 61 3 C59.52031676 3.14049518 58.04125484 3.28754826 56.5625 3.4375 C55.73878906 3.51871094 54.91507813 3.59992188 54.06640625 3.68359375 C52.01337975 3.78930815 52.01337975 3.78930815 51 5 C49.40389018 5.09333705 47.80366572 5.11745372 46.20483398 5.11352539 C45.18385117 5.11344986 44.16286835 5.11337433 43.11094666 5.11329651 C42.0005452 5.10813522 40.89014374 5.10297394 39.74609375 5.09765625 C38.61551041 5.0962413 37.48492706 5.09482635 36.32008362 5.09336853 C32.69252935 5.08775019 29.06503576 5.07519458 25.4375 5.0625 C22.98502693 5.05748736 20.5325529 5.05292405 18.08007812 5.04882812 C12.05336455 5.0377748 6.02668661 5.02101884 0 5 C0 3.35 0 1.7 0 0 Z " fill="#372D19" transform="translate(74,230)"/>
<path d="M0 0 C49.17 0 98.34 0 149 0 C149 0.33 149 0.66 149 1 C100.16 1 51.32 1 1 1 C1 33.67 1 66.34 1 100 C2.32 100 3.64 100 5 100 C5 98.35 5 96.7 5 95 C6.98 95 8.96 95 11 95 C11 96.65 11 98.3 11 100 C11.99 100 12.98 100 14 100 C14 98.35 14 96.7 14 95 C17.96 95 21.92 95 26 95 C26 96.65 26 98.3 26 100 C26.99 100 27.98 100 29 100 C29 98.35 29 96.7 29 95 C31.31 95 33.62 95 36 95 C36 96.65 36 98.3 36 100 C37.98 100 39.96 100 42 100 C42 97.03 42 94.06 42 91 C29.79 91 17.58 91 5 91 C5 62.62 5 34.24 5 5 C51.2 5 97.4 5 145 5 C145 5.33 145 5.66 145 6 C99.13 6 53.26 6 6 6 C6 33.72 6 61.44 6 90 C18.21 90 30.42 90 43 90 C43 94.95 43 99.9 43 105 C28.81 105 14.62 105 0 105 C0 70.35 0 35.7 0 0 Z " fill="#545454" transform="translate(74,80)"/>
<path d="M0 0 C3.66664954 -0.02932237 7.3332684 -0.04690637 11 -0.0625 C12.02996094 -0.07087891 13.05992188 -0.07925781 14.12109375 -0.08789062 C19.85025613 -0.10613637 25.33484101 0.13524616 31 1 C31.18451025 10.41002278 31.18451025 10.41002278 30 15 C31.65 15 33.3 15 35 15 C35 13.35 35 11.7 35 10 C36.98 10 38.96 10 41 10 C41 13.3 41 16.6 41 20 C22.52 20 4.04 20 -15 20 C-14.67 18.35 -14.34 16.7 -14 15 C-12.68 15 -11.36 15 -10 15 C-10 13.35 -10 11.7 -10 10 C-8.35 10 -6.7 10 -5 10 C-5 8.35 -5 6.7 -5 5 C-3.35 5 -1.7 5 0 5 C0 3.35 0 1.7 0 0 Z " fill="#8A8A8A" transform="translate(94,205)"/>
<path d="M0 0 C42.9 0 85.8 0 130 0 C130 18.48 130 36.96 130 56 C126.04 56 122.08 56 118 56 C118 58.97 118 61.94 118 65 C126.415 64.505 126.415 64.505 135 64 C135 64.66 135 65.32 135 66 C132.02077407 66.02683987 129.04178705 66.04676037 126.0625 66.0625 C125.21236328 66.07087891 124.36222656 66.07925781 123.48632812 66.08789062 C122.67744141 66.09111328 121.86855469 66.09433594 121.03515625 66.09765625 C120.2862915 66.10289307 119.53742676 66.10812988 118.76586914 66.11352539 C117 66 117 66 116 65 C116 62.36 116 59.72 116 57 C106.1 57 96.2 57 86 57 C86 59.64 86 62.28 86 65 C85.67 65 85.34 65 85 65 C85 62.36 85 59.72 85 57 C79.39 57 73.78 57 68 57 C68 59.97 68 62.94 68 66 C65.03 66 62.06 66 59 66 C59 65.67 59 65.34 59 65 C61.31 65 63.62 65 66 65 C66 61.7 66 58.4 66 55 C71.94 55 77.88 55 84 55 C84 54.34 84 53.68 84 53 C81.36 53 78.72 53 76 53 C76 52.34 76 51.68 76 51 C78.97 51 81.94 51 85 51 C85 50.01 85 49.02 85 48 C92.94808107 47.28441714 100.83491675 46.89416537 108.8125 46.875 C109.6070459 46.87048828 110.4015918 46.86597656 111.22021484 46.86132812 C116.87614392 46.87614392 116.87614392 46.87614392 118 48 C118.04092937 50.33297433 118.04241723 52.66705225 118 55 C121.63 55 125.26 55 129 55 C129 37.18 129 19.36 129 1 C86.76 1 44.52 1 1 1 C1 25.42 1 49.84 1 75 C0.67 75 0.34 75 0 75 C0 50.25 0 25.5 0 0 Z " fill="#23281A" transform="translate(84,90)"/>
<path d="M0 0 C0.0541112 6.51986282 -0.08216302 12.99796386 -0.4375 19.5078125 C-0.48189209 20.35930878 -0.52628418 21.21080505 -0.57202148 22.08810425 C-0.71224689 24.76720431 -0.85605608 27.44609742 -1 30.125 C-1.09659293 31.95832077 -1.19294914 33.79165403 -1.2890625 35.625 C-1.52331048 40.08348211 -1.76076927 44.54178258 -2 49 C-4.64 49 -7.28 49 -10 49 C-10 40.42 -10 31.84 -10 23 C-12.64 23 -15.28 23 -18 23 C-18 17.72 -18 12.44 -18 7 C-23.28 7 -28.56 7 -34 7 C-34 5.02 -34 3.04 -34 1 C-10.88664936 -0.15998663 -10.88664936 -0.15998663 0 0 Z " fill="#5F9E19" transform="translate(212,190)"/>
<path d="M0 0 C2.97 0 5.94 0 9 0 C9 2.97 9 5.94 9 9 C11.31 9 13.62 9 16 9 C16 14.94 16 20.88 16 27 C21.94 27 27.88 27 34 27 C34 29.64 34 32.28 34 35 C41.59 35 49.18 35 57 35 C57 36.98 57 38.96 57 41 C47.1 41 37.2 41 27 41 C27 38.36 27 35.72 27 33 C21.06 33 15.12 33 9 33 C9 30.36 9 27.72 9 25 C6.36 25 3.72 25 1 25 C0.24524649 16.64380043 -0.13605482 8.39004715 0 0 Z " fill="#246C42" transform="translate(143,256)"/>
<path d="M0 0 C1.98 0 3.96 0 6 0 C6 2.31 6 4.62 6 7 C8.97 7 11.94 7 15 7 C15 9.64 15 12.28 15 15 C18.63 15 22.26 15 26 15 C26 12.69 26 10.38 26 8 C27.98 8 29.96 8 32 8 C32 10.31 32 12.62 32 15 C34.97 15 37.94 15 41 15 C41 23.58 41 32.16 41 41 C38.36 41 35.72 41 33 41 C33 37.7 33 34.4 33 31 C30.36 31 27.72 31 25 31 C25 28.36 25 25.72 25 23 C19.06 23 13.12 23 7 23 C7 20.03 7 17.06 7 14 C4.69 14 2.38 14 0 14 C0 9.38 0 4.76 0 0 Z " fill="#16100E" transform="translate(144,191)"/>
<path d="M0 0 C2.64 0 5.28 0 8 0 C8 2.97 8 5.94 8 9 C5.69 9 3.38 9 1 9 C1.020625 10.134375 1.04125 11.26875 1.0625 12.4375 C1 16 1 16 0 17 C-2.86267567 17.07325168 -5.700719 17.09238205 -8.5625 17.0625 C-9.36880859 17.05798828 -10.17511719 17.05347656 -11.00585938 17.04882812 C-13.00393756 17.03700518 -15.00197783 17.01906914 -17 17 C-16.979375 18.134375 -16.95875 19.26875 -16.9375 20.4375 C-17 24 -17 24 -18 25 C-19.78071246 25.08726223 -21.5648314 25.10699041 -23.34765625 25.09765625 C-24.42724609 25.09443359 -25.50683594 25.09121094 -26.61914062 25.08789062 C-27.75544922 25.07951172 -28.89175781 25.07113281 -30.0625 25.0625 C-31.20267578 25.05798828 -32.34285156 25.05347656 -33.51757812 25.04882812 C-36.34510351 25.03699747 -39.1725264 25.0205141 -42 25 C-42 22.36 -42 19.72 -42 17 C-47.94 17 -53.88 17 -60 17 C-60 14.03 -60 11.06 -60 8 C-53.73 8 -47.46 8 -41 8 C-41 10.31 -41 12.62 -41 15 C-33.74 15 -26.48 15 -19 15 C-19 12.69 -19 10.38 -19 8 C-12.73 8 -6.46 8 0 8 C0 5.36 0 2.72 0 0 Z " fill="#85A547" transform="translate(219,266)"/>
<path d="M0 0 C2.64 0 5.28 0 8 0 C8 2.64 8 5.28 8 8 C13.94 8 19.88 8 26 8 C26 10.64 26 13.28 26 16 C28.64 16 31.28 16 34 16 C34 19.3 34 22.6 34 26 C36.64 26 39.28 26 42 26 C42 28.64 42 31.28 42 34 C36.72 34 31.44 34 26 34 C26 31.36 26 28.72 26 26 C20.06 26 14.12 26 8 26 C8 22.7 8 19.4 8 16 C5.36 16 2.72 16 0 16 C0 10.72 0 5.44 0 0 Z " fill="#D8478B" transform="translate(143,206)"/>
<path d="M0 0 C2.97 0 5.94 0 9 0 C9 13.86 9 27.72 9 42 C6.03 42 3.06 42 0 42 C0.020625 43.299375 0.04125 44.59875 0.0625 45.9375 C0.08399454 47.29165633 0.07148199 48.64756083 0 50 C-1 51 -1 51 -4.5625 51.0625 C-5.696875 51.041875 -6.83125 51.02125 -8 51 C-8 53.31 -8 55.62 -8 58 C-10.97 58 -13.94 58 -17 58 C-17 55.36 -17 52.72 -17 50 C-14.36 50 -11.72 50 -9 50 C-9.020625 48.824375 -9.04125 47.64875 -9.0625 46.4375 C-9.06947261 42.52586533 -8.64250343 38.85502056 -8 35 C-5.36 35 -2.72 35 0 35 C0 23.45 0 11.9 0 0 Z " fill="#91440E" transform="translate(236,164)"/>
<path d="M0 0 C13.2 0 26.4 0 40 0 C40 1.98 40 3.96 40 6 C31.75 6 23.5 6 15 6 C15 8.97 15 11.94 15 15 C9.39 15 3.78 15 -2 15 C-2 17.31 -2 19.62 -2 22 C-4.64 22 -7.28 22 -10 22 C-10 17.38 -10 12.76 -10 8 C-6.7 8 -3.4 8 0 8 C0 5.36 0 2.72 0 0 Z " fill="#5D9D16" transform="translate(170,157)"/>
<path d="M0 0 C3.96 0 7.92 0 12 0 C12 4.62 12 9.24 12 14 C8.04 14 4.08 14 0 14 C0 14.66 0 15.32 0 16 C18.15 16 36.3 16 55 16 C55 17.98 55 19.96 55 22 C53.02 22 51.04 22 49 22 C49 23.32 49 24.64 49 26 C47.74703125 26.04898438 46.4940625 26.09796875 45.203125 26.1484375 C43.55206179 26.22348583 41.90102119 26.29903277 40.25 26.375 C39.0125 26.42140625 39.0125 26.42140625 37.75 26.46875 C36.55117187 26.52675781 36.55117187 26.52675781 35.328125 26.5859375 C34.22839355 26.63306885 34.22839355 26.63306885 33.10644531 26.68115234 C30.92021232 26.89937341 30.92021232 26.89937341 28.85449219 28.08837891 C28.24250977 28.38921387 27.63052734 28.69004883 27 29 C26.34 28.67 25.68 28.34 25 28 C25 25.69 25 23.38 25 21 C26.66611905 20.957279 28.33382885 20.95936168 30 21 C30.33 21.33 30.66 21.66 31 22 C32.99958364 22.04080783 35.00045254 22.04254356 37 22 C37 20.68 37 19.36 37 18 C22.81 18 8.62 18 -6 18 C-6 16.35 -6 14.7 -6 13 C-4.02 13 -2.04 13 0 13 C0 8.71 0 4.42 0 0 Z " fill="#89684D" transform="translate(120,115)"/>
<path d="M0 0 C5.61 0 11.22 0 17 0 C17.09765625 6.93359375 17.09765625 6.93359375 17 9 C16 10 16 10 12.40234375 10.09765625 C10.91402745 10.09191272 9.42573704 10.07889891 7.9375 10.0625 C5.318125 10.041875 2.69875 10.02125 0 10 C0 17.26 0 24.52 0 32 C2.31 32 4.62 32 7 32 C8 33 8 33 8.09765625 35.06640625 C8.08605469 35.89011719 8.07445312 36.71382812 8.0625 37.5625 C8.05347656 38.38878906 8.04445312 39.21507812 8.03515625 40.06640625 C8.02355469 40.70449219 8.01195312 41.34257812 8 42 C10.64 42 13.28 42 16 42 C15.98839844 41.36191406 15.97679687 40.72382813 15.96484375 40.06640625 C15.95582031 39.24011719 15.94679687 38.41382813 15.9375 37.5625 C15.92589844 36.73878906 15.91429687 35.91507813 15.90234375 35.06640625 C16 33 16 33 17 32 C20.00331018 31.85806663 22.99217134 31.95763622 26 32 C26 35.63 26 39.26 26 43 C23.03 43 20.06 43 17 43 C17 45.31 17 47.62 17 50 C14.03 50 11.06 50 8 50 C8 47.69 8 45.38 8 43 C5.03 43 2.06 43 -1 43 C-1.02492221 38.32267637 -1.04296415 33.64539233 -1.05493164 28.96801758 C-1.05992654 27.38044561 -1.06672475 25.79287817 -1.07543945 24.20532227 C-1.16225376 7.97104742 -1.16225376 7.97104742 0 0 Z " fill="#244905" transform="translate(152,147)"/>
<path d="M0 0 C0.33 0 0.66 0 1 0 C1 3.96 1 7.92 1 12 C2.98 12 4.96 12 7 12 C5.125 13.0625 5.125 13.0625 3 14 C2.34 13.67 1.68 13.34 1 13 C1 14.65 1 16.3 1 18 C1.86334961 17.83773926 2.72669922 17.67547852 3.61621094 17.50830078 C6.85254648 17.02214994 9.87169722 16.87074621 13.140625 16.8671875 C14.29433594 16.86589844 15.44804687 16.86460937 16.63671875 16.86328125 C18.42529297 16.86908203 18.42529297 16.86908203 20.25 16.875 C22.01537109 16.86919922 22.01537109 16.86919922 23.81640625 16.86328125 C30.60701481 16.87083476 37.26068317 17.15227505 44 18 C44 19.32 44 20.64 44 22 C42.02 22 40.04 22 38 22 C37.67 22.66 37.34 23.32 37 24 C37 23.01 37 22.02 37 21 C36.01 21.33 35.02 21.66 34 22 C33.34 21.67 32.68 21.34 32 21 C31.505 22.485 31.505 22.485 31 24 C31 23.34 31 22.68 31 22 C29.22825181 22.08723378 27.45752623 22.19541655 25.6875 22.3125 C24.70136719 22.37050781 23.71523437 22.42851562 22.69921875 22.48828125 C19.73001219 23.05118437 18.7116255 23.54063367 17 26 C17 26.99 17 27.98 17 29 C19.9063515 31.80255323 20.78825048 32 25 32 C25 32.66 25 33.32 25 34 C21.37 34 17.74 34 14 34 C14.33 33.01 14.66 32.02 15 31 C14.34 30.67 13.68 30.34 13 30 C13.33 29.67 13.66 29.34 14 29 C12.68 28.67 11.36 28.34 10 28 C9.67 28.99 9.34 29.98 9 31 C7.35 31 5.7 31 4 31 C4 35.95 4 40.9 4 46 C6.31 46 8.62 46 11 46 C11 46.66 11 47.32 11 48 C9.865625 48.144375 8.73125 48.28875 7.5625 48.4375 C4.19222799 48.61171478 4.19222799 48.61171478 3 50 C1.00041636 50.04080783 -1.00045254 50.04254356 -3 50 C-1.515 49.505 -1.515 49.505 0 49 C0 32.83 0 16.66 0 0 Z " fill="#735039" transform="translate(113,115)"/>
<path d="M0 0 C1.65 0 3.3 0 5 0 C5 1.65 5 3.3 5 5 C6.65 5 8.3 5 10 5 C10 3.35 10 1.7 10 0 C13.3 0 16.6 0 20 0 C20 1.65 20 3.3 20 5 C21.65 5 23.3 5 25 5 C25 9.95 25 14.9 25 20 C18.4 20 11.8 20 5 20 C5 18.35 5 16.7 5 15 C3.68 15 2.36 15 1 15 C0.67 10.05 0.34 5.1 0 0 Z " fill="#8C8C8C" transform="translate(244,215)"/>
<path d="M0 0 C2.31 0 4.62 0 7 0 C7 5.28 7 10.56 7 16 C9.64 16 12.28 16 15 16 C15 18.97 15 21.94 15 25 C12.36 25 9.72 25 7 25 C7 27.64 7 30.28 7 33 C1.06 33 -4.88 33 -11 33 C-11 30.36 -11 27.72 -11 25 C-7.7 25 -4.4 25 -1 25 C-1.01740234 23.17275391 -1.01740234 23.17275391 -1.03515625 21.30859375 C-1.04454178 19.68489738 -1.05364116 18.06119933 -1.0625 16.4375 C-1.07087891 15.63763672 -1.07925781 14.83777344 -1.08789062 14.01367188 C-1.10742247 9.22836896 -0.80437018 4.71854949 0 0 Z " fill="#216E42" transform="translate(212,241)"/>
<path d="M0 0 C1.65 0 3.3 0 5 0 C5 0.66 5 1.32 5 2 C8.96 2.33 12.92 2.66 17 3 C17 10.59 17 18.18 17 26 C17.99 26 18.98 26 20 26 C20 26.66 20 27.32 20 28 C21.98 28.495 21.98 28.495 24 29 C16.74 29 9.48 29 2 29 C2 28.67 2 28.34 2 28 C4.97 27.67 7.94 27.34 11 27 C11 21.06 11 15.12 11 9 C-4.18 9 -19.36 9 -35 9 C-35 8.01 -35 7.02 -35 6 C-36.10859375 6.02320312 -37.2171875 6.04640625 -38.359375 6.0703125 C-39.82290992 6.08907577 -41.28645214 6.10727537 -42.75 6.125 C-43.47960937 6.14175781 -44.20921875 6.15851563 -44.9609375 6.17578125 C-49.13521398 6.21372922 -51.16970546 5.91514727 -55 4 C-46.09 4 -37.18 4 -28 4 C-28 4.66 -28 5.32 -28 6 C-23.70778769 5.89053657 -19.4164851 5.75981105 -15.125 5.625 C-13.90167969 5.5940625 -12.67835938 5.563125 -11.41796875 5.53125 C-9.66806641 5.47324219 -9.66806641 5.47324219 -7.8828125 5.4140625 C-6.26463623 5.36693115 -6.26463623 5.36693115 -4.61376953 5.31884766 C-1.84238346 5.25323678 -1.84238346 5.25323678 0 3 C0.495 4.485 0.495 4.485 1 6 C1.99 5.67 2.98 5.34 4 5 C3.505 3.515 3.505 3.515 3 2 C2.01 2 1.02 2 0 2 C0 1.34 0 0.68 0 0 Z " fill="#5F3F35" transform="translate(167,109)"/>
<path d="M0 0 C5.94 0 11.88 0 18 0 C19.97349374 3.94698749 20.24970477 5.45192088 20.1875 9.6875 C20.18105469 10.66074219 20.17460937 11.63398438 20.16796875 12.63671875 C20 15 20 15 19 16 C17.14712498 16.07226502 15.29166122 16.0838122 13.4375 16.0625 C12.42558594 16.05347656 11.41367188 16.04445312 10.37109375 16.03515625 C9.19740234 16.01775391 9.19740234 16.01775391 8 16 C8 18.64 8 21.28 8 24 C5.36 24 2.72 24 0 24 C0 16.08 0 8.16 0 0 Z " fill="#58300C" transform="translate(227,232)"/>
<path d="M0 0 C1.65 0 3.3 0 5 0 C3.68 0.33 2.36 0.66 1 1 C1 5.62 1 10.24 1 15 C3.64 15 6.28 15 9 15 C10.64176774 18.28353549 10.18454039 21.89519638 10.1875 25.5 C10.19974609 26.28503906 10.21199219 27.07007813 10.22460938 27.87890625 C10.22986254 29.92063726 10.1222018 31.96192251 10 34 C8 36 8 36 3 37 C2.67 43.6 2.34 50.2 2 57 C3.65 57 5.3 57 7 57 C7 52.05 7 47.1 7 42 C9.31 41.34 11.62 40.68 14 40 C14.33 29.11 14.66 18.22 15 7 C18.96 7 22.92 7 27 7 C27 12.61 27 18.22 27 24 C26.67 24 26.34 24 26 24 C26 18.72 26 13.44 26 8 C23.03 8 20.06 8 17 8 C17 19.55 17 31.1 17 43 C14.36 43 11.72 43 9 43 C8.67 47.95 8.34 52.9 8 58 C5.36 58 2.72 58 0 58 C0 50.08 0 42.16 0 34 C-1.98 34 -3.96 34 -6 34 C-6.66 33.67 -7.32 33.34 -8 33 C-8 30.03 -8 27.06 -8 24 C-5.03 24 -2.06 24 1 24 C1 26.97 1 29.94 1 33 C3.31 33 5.62 33 8 33 C8 27.39 8 21.78 8 16 C5.36 16 2.72 16 0 16 C0 10.72 0 5.44 0 0 Z " fill="#412C0B" transform="translate(219,156)"/>
<path d="M0 0 C1.98 0 3.96 0 6 0 C6.33 1.98 6.66 3.96 7 6 C12.94 6.66 18.88 7.32 25 8 C25 9.98 25 11.96 25 14 C11.47 14 -2.06 14 -16 14 C-16 12.02 -16 10.04 -16 8 C-11.05 7.67 -6.1 7.34 -1 7 C-0.67 4.69 -0.34 2.38 0 0 Z " fill="#0E0F0B" transform="translate(186,233)"/>
<path d="M0 0 C0.33 0 0.66 0 1 0 C1 2.31 1 4.62 1 7 C3.97 7 6.94 7 10 7 C10 4.69 10 2.38 10 0 C12.64 0 15.28 0 18 0 C18.33 4.95 18.66 9.9 19 15 C20.299375 14.979375 21.59875 14.95875 22.9375 14.9375 C24.29165633 14.91600546 25.64756083 14.92851801 27 15 C28 16 28 16 28.11352539 18.40844727 C28.10828857 19.45057373 28.10305176 20.4927002 28.09765625 21.56640625 C28.09443359 22.69111328 28.09121094 23.81582031 28.08789062 24.97460938 C28.07951172 26.15861328 28.07113281 27.34261719 28.0625 28.5625 C28.05798828 29.75037109 28.05347656 30.93824219 28.04882812 32.16210938 C28.03699675 35.10812226 28.02051287 38.05403681 28 41 C30.31 41 32.62 41 35 41 C35 43.64 35 46.28 35 49 C37.31 49 39.62 49 42 49 C42 49.33 42 49.66 42 50 C35.84765625 50.09765625 35.84765625 50.09765625 34 50 C33 49 33 49 32.9375 45.9375 C32.958125 44.968125 32.97875 43.99875 33 43 C31.02 43 29.04 43 27 43 C27 45.31 27 47.62 27 50 C26.67 50 26.34 50 26 50 C26 38.78 26 27.56 26 16 C23.03 16 20.06 16 17 16 C17 13.69 17 11.38 17 9 C15.02 9 13.04 9 11 9 C11 11.31 11 13.62 11 16 C7.37 16 3.74 16 0 16 C0 10.72 0 5.44 0 0 Z " fill="#2C3F08" transform="translate(159,190)"/>
<path d="M0 0 C3.3 0 6.6 0 10 0 C10 2.64 10 5.28 10 8 C23.86 8 37.72 8 52 8 C52 13.94 52 19.88 52 26 C48.7 26 45.4 26 42 26 C42 28.64 42 31.28 42 34 C36.72 34 31.44 34 26 34 C26 31.36 26 28.72 26 26 C20.39 26 14.78 26 9 26 C9 20.39 9 14.78 9 9 C6.03 9 3.06 9 0 9 C0 6.03 0 3.06 0 0 Z M12 10 C12 14.95 12 19.9 12 25 C18.93 25.495 18.93 25.495 26 26 C26.33 28.31 26.66 30.62 27 33 C31.62 33 36.24 33 41 33 C41 30.36 41 27.72 41 25 C44.3 25 47.6 25 51 25 C51 20.05 51 15.1 51 10 C38.13 10 25.26 10 12 10 Z " fill="#2CA84C" transform="translate(159,240)"/>
<path d="M0 0 C1.50433594 0.01353516 1.50433594 0.01353516 3.0390625 0.02734375 C3.80992187 0.03894531 4.58078125 0.05054688 5.375 0.0625 C5.375 1.7125 5.375 3.3625 5.375 5.0625 C7.355 5.0625 9.335 5.0625 11.375 5.0625 C11.375 5.7225 11.375 6.3825 11.375 7.0625 C9.395 7.0625 7.415 7.0625 5.375 7.0625 C5.375 12.6725 5.375 18.2825 5.375 24.0625 C5.045 24.0625 4.715 24.0625 4.375 24.0625 C4.375 18.7825 4.375 13.5025 4.375 8.0625 C1.075 8.0625 -2.225 8.0625 -5.625 8.0625 C-4.965 21.5925 -4.305 35.1225 -3.625 49.0625 C1.655 49.3925 6.935 49.7225 12.375 50.0625 C12.375 55.3425 12.375 60.6225 12.375 66.0625 C12.045 66.0625 11.715 66.0625 11.375 66.0625 C11.375 61.1125 11.375 56.1625 11.375 51.0625 C6.425 51.0625 1.475 51.0625 -3.625 51.0625 C-3.625 53.0425 -3.625 55.0225 -3.625 57.0625 C-2.965 57.0625 -2.305 57.0625 -1.625 57.0625 C-1.625 59.3725 -1.625 61.6825 -1.625 64.0625 C-3.275 64.0625 -4.925 64.0625 -6.625 64.0625 C-6.295 59.4425 -5.965 54.8225 -5.625 50.0625 C-8.265 50.0625 -10.905 50.0625 -13.625 50.0625 C-13.625 49.7325 -13.625 49.4025 -13.625 49.0625 C-11.315 49.0625 -9.005 49.0625 -6.625 49.0625 C-6.625 35.5325 -6.625 22.0025 -6.625 8.0625 C-9.265 8.3925 -11.905 8.7225 -14.625 9.0625 C-14.295 8.4025 -13.965 7.7425 -13.625 7.0625 C-11.315 7.0625 -9.005 7.0625 -6.625 7.0625 C-6.955 5.0825 -7.285 3.1025 -7.625 1.0625 C-4.98041621 -0.25979189 -2.94738699 -0.03427194 0 0 Z " fill="#492C1F" transform="translate(130.625,155.9375)"/>
<path d="M0 0 C20.13 0 40.26 0 61 0 C61 0.66 61 1.32 61 2 C57.7 2 54.4 2 51 2 C51 2.99 51 3.98 51 5 C34.17 5 17.34 5 0 5 C0 3.35 0 1.7 0 0 Z " fill="#717170" transform="translate(74,230)"/>
<path d="M0 0 C1.98 0 3.96 0 6 0 C6 7.26 6 14.52 6 22 C0.72 22 -4.56 22 -10 22 C-10 17.38 -10 12.76 -10 8 C-5.545 7.505 -5.545 7.505 -1 7 C-0.67 4.69 -0.34 2.38 0 0 Z " fill="#5E340D" transform="translate(136,233)"/>
<path d="M0 0 C7.59 0 15.18 0 23 0 C23 0.66 23 1.32 23 2 C25.31 2 27.62 2 30 2 C30 2.99 30 3.98 30 5 C21.75 5 13.5 5 5 5 C5 6.65 5 8.3 5 10 C3.35 10 1.7 10 0 10 C0 11.65 0 13.3 0 15 C-1.65 15 -3.3 15 -5 15 C-5 16.32 -5 17.64 -5 19 C-7.97 19 -10.94 19 -14 19 C-14 17.68 -14 16.36 -14 15 C-12.68 15 -11.36 15 -10 15 C-10 13.35 -10 11.7 -10 10 C-8.35 10 -6.7 10 -5 10 C-5 8.35 -5 6.7 -5 5 C-3.35 5 -1.7 5 0 5 C0 3.35 0 1.7 0 0 Z " fill="#A2A2A2" transform="translate(94,205)"/>
<path d="M0 0 C0.66 0 1.32 0 2 0 C2 1.32 2 2.64 2 4 C3.65 4 5.3 4 7 4 C5.68 4.33 4.36 4.66 3 5 C3 16.22 3 27.44 3 39 C4.98 38.505 4.98 38.505 7 38 C7.02888146 41.31248187 7.04675799 44.62493167 7.0625 47.9375 C7.07087891 48.88302734 7.07925781 49.82855469 7.08789062 50.80273438 C7.09111328 51.70185547 7.09433594 52.60097656 7.09765625 53.52734375 C7.10289307 54.35999756 7.10812988 55.19265137 7.11352539 56.05053711 C7 58 7 58 6 59 C4.02 59 2.04 59 0 59 C0 39.53 0 20.06 0 0 Z " fill="#AB845F" transform="translate(104,106)"/>
<path d="M0 0 C0.33 0 0.66 0 1 0 C1 2.97 1 5.94 1 9 C2.98 9 4.96 9 7 9 C7 6.03 7 3.06 7 0 C9.97 0 12.94 0 16 0 C16 3.3 16 6.6 16 10 C18.64 10 21.28 10 24 10 C24 12.64 24 15.28 24 18 C21.03 18 18.06 18 15 18 C15 15.69 15 13.38 15 11 C13.02 11 11.04 11 9 11 C9 15.62 9 20.24 9 25 C11.31 25 13.62 25 16 25 C16 25.33 16 25.66 16 26 C8.08 26 0.16 26 -8 26 C-8 25.67 -8 25.34 -8 25 C-3.05 25 1.9 25 7 25 C7 20.38 7 15.76 7 11 C4.69 11 2.38 11 0 11 C0 7.37 0 3.74 0 0 Z " fill="#51260E" transform="translate(135,180)"/>
<path d="M0 0 C0 2.64 0 5.28 0 8 C-3.3 8 -6.6 8 -10 8 C-10 12.95 -10 17.9 -10 23 C-12.31 23 -14.62 23 -17 23 C-17 15.74 -17 8.48 -17 1 C-13.0709375 0.7525 -13.0709375 0.7525 -9.0625 0.5 C-8.2362915 0.44779297 -7.41008301 0.39558594 -6.55883789 0.34179688 C-1.11111111 0 -1.11111111 0 0 0 Z " fill="#316A05" transform="translate(169,156)"/>
<path d="M0 0 C12.54 0 25.08 0 38 0 C38 4.95 38 9.9 38 15 C24.14 15 10.28 15 -4 15 C-4 14.67 -4 14.34 -4 14 C2.93 14 9.86 14 17 14 C16.67 13.34 16.34 12.68 16 12 C12.97065509 11.34227572 12.97065509 11.34227572 10 11 C10 10.67 10 10.34 10 10 C13.3 10 16.6 10 20 10 C20 8.35 20 6.7 20 5 C20.33 5 20.66 5 21 5 C21 6.65 21 8.3 21 10 C21.99 10 22.98 10 24 10 C24 8.35 24 6.7 24 5 C26.31 5 28.62 5 31 5 C31 6.65 31 8.3 31 10 C32.98 10 34.96 10 37 10 C37 7.03 37 4.06 37 1 C24.79 1 12.58 1 0 1 C0 0.67 0 0.34 0 0 Z " fill="#868686" transform="translate(79,170)"/>
<path d="M0 0 C2.64 0.33 5.28 0.66 8 1 C8 8.92 8 16.84 8 25 C5.69 25 3.38 25 1 25 C1 33.58 1 42.16 1 51 C0.67 51 0.34 51 0 51 C0 34.17 0 17.34 0 0 Z " fill="#2F6207" transform="translate(211,189)"/>
<path d="M0 0 C6.27 0 12.54 0 19 0 C19.09765625 7.71484375 19.09765625 7.71484375 19 10 C18 11 18 11 16.23413086 11.11352539 C15.48526611 11.10828857 14.73640137 11.10305176 13.96484375 11.09765625 C13.15595703 11.09443359 12.34707031 11.09121094 11.51367188 11.08789062 C10.66353516 11.07951172 9.81339844 11.07113281 8.9375 11.0625 C8.08349609 11.05798828 7.22949219 11.05347656 6.34960938 11.04882812 C4.23304337 11.03700373 2.11651315 11.01906769 0 11 C0 7.37 0 3.74 0 0 Z " fill="#810306" transform="translate(201,298)"/>
<path d="M0 0 C2.31 0.33 4.62 0.66 7 1 C6.67 5.29 6.34 9.58 6 14 C9.96 14 13.92 14 18 14 C18 14.99 18 15.98 18 17 C13.38 17 8.76 17 4 17 C4 24.26 4 31.52 4 39 C3.01 39 2.02 39 1 39 C1.00523682 38.30849854 1.01047363 37.61699707 1.01586914 36.90454102 C1.036575 33.79053648 1.04963963 30.67654639 1.0625 27.5625 C1.07087891 26.47388672 1.07925781 25.38527344 1.08789062 24.26367188 C1.09111328 23.22919922 1.09433594 22.19472656 1.09765625 21.12890625 C1.10289307 20.17056885 1.10812988 19.21223145 1.11352539 18.22485352 C1.2505313 16.02714661 1.2505313 16.02714661 0 15 C-0.07313567 12.46950598 -0.09247527 9.96695163 -0.0625 7.4375 C-0.05798828 6.72658203 -0.05347656 6.01566406 -0.04882812 5.28320312 C-0.03700864 3.52209987 -0.01907263 1.76103964 0 0 Z " fill="#B6A996" transform="translate(106,95)"/>
<path d="M0 0 C5.96313166 -0.02464574 11.92623395 -0.042834 17.8894043 -0.05493164 C19.91968298 -0.05997278 21.94995802 -0.06680557 23.98022461 -0.07543945 C26.89177347 -0.08751467 29.8032745 -0.09323034 32.71484375 -0.09765625 C33.6283812 -0.10281754 34.54191864 -0.10797882 35.48313904 -0.11329651 C37.65575427 -0.11349168 39.82827296 -0.06211805 42 0 C43 1 43 1 43 8 C34.09 8 25.18 8 16 8 C16 7.67 16 7.34 16 7 C24.25 7 32.5 7 41 7 C41 5.02 41 3.04 41 1 C27.8 1 14.6 1 1 1 C1 3.64 1 6.28 1 9 C-2.3 9 -5.6 9 -9 9 C-9 13.62 -9 18.24 -9 23 C-6.36 23 -3.72 23 -1 23 C-1 20.69 -1 18.38 -1 16 C-0.67 16 -0.34 16 0 16 C-0.33 21.61 -0.66 27.22 -1 33 C-3.64 33 -6.28 33 -9 33 C-10.19190363 24.65667456 -10.09283549 16.40676978 -10 8 C-6.7 8 -3.4 8 0 8 C0 5.36 0 2.72 0 0 Z " fill="#4D890F" transform="translate(169,156)"/>
<path d="M0 0 C5.94 0 11.88 0 18 0 C18 3.63 18 7.26 18 11 C12.06 11 6.12 11 0 11 C0 7.37 0 3.74 0 0 Z " fill="#840306" transform="translate(151,298)"/>
<path d="M0 0 C1.66772461 0.07250977 1.66772461 0.07250977 3.36914062 0.14648438 C4.51962891 0.20255859 5.67011719 0.25863281 6.85546875 0.31640625 C8.61020508 0.3947168 8.61020508 0.3947168 10.40039062 0.47460938 C13.28154149 0.60396717 16.1623179 0.7389209 19.04296875 0.87890625 C19.04296875 2.85890625 19.04296875 4.83890625 19.04296875 6.87890625 C9.14296875 6.87890625 -0.75703125 6.87890625 -10.95703125 6.87890625 C-10.95703125 4.89890625 -10.95703125 2.91890625 -10.95703125 0.87890625 C-7.19190827 -0.01927971 -3.86125672 -0.17821185 0 0 Z " fill="#0D0E0A" transform="translate(180.95703125,138.12109375)"/>
<path d="M0 0 C2 2 2 2 2.1953125 5.0390625 C2.17210937 6.22242188 2.14890625 7.40578125 2.125 8.625 C2.10695312 9.81351562 2.08890625 11.00203125 2.0703125 12.2265625 C2.04710937 13.14179688 2.02390625 14.05703125 2 15 C4.64 15 7.28 15 10 15 C10 17.64 10 20.28 10 23 C15.94 23 21.88 23 28 23 C28 25.64 28 28.28 28 31 C37.9 31 47.8 31 58 31 C58 29.02 58 27.04 58 25 C58.33 25 58.66 25 59 25 C59 27.64 59 30.28 59 33 C54.46102295 33.02465392 49.92208457 33.04283789 45.38305664 33.05493164 C43.83780234 33.0599714 42.29255284 33.0668032 40.74731445 33.07543945 C38.53074971 33.08752076 36.31424782 33.09323173 34.09765625 33.09765625 C33.05545677 33.10539818 33.05545677 33.10539818 31.99220276 33.11329651 C30.3277067 33.11349277 28.66334501 33.06189129 27 33 C26 32 26 32 25.9375 28.4375 C25.958125 27.303125 25.97875 26.16875 26 25 C24.78441406 25.01160156 23.56882813 25.02320313 22.31640625 25.03515625 C20.73177236 25.04453278 19.14713682 25.05363313 17.5625 25.0625 C16.76005859 25.07087891 15.95761719 25.07925781 15.13085938 25.08789062 C13.08704779 25.0965143 11.04316098 25.0522815 9 25 C8 24 8 24 7.9375 20.4375 C7.958125 19.303125 7.97875 18.16875 8 17 C5.36 17 2.72 17 0 17 C0 11.39 0 5.78 0 0 Z " fill="#16482D" transform="translate(142,266)"/>
<path d="M0 0 C1.65 0.33 3.3 0.66 5 1 C5 2.32 5 3.64 5 5 C6.32 5.33 7.64 5.66 9 6 C9 7.98 9 9.96 9 12 C6.69 12.66 4.38 13.32 2 14 C1.67 15.32 1.34 16.64 1 18 C-1.31 18 -3.62 18 -6 18 C-6 13.05 -6 8.1 -6 3 C-4.35 2.67 -2.7 2.34 -1 2 C-0.67 1.34 -0.34 0.68 0 0 Z " fill="#74543A" transform="translate(123,143)"/>
<path d="M0 0 C7.59 0 15.18 0 23 0 C23 2.31 23 4.62 23 7 C15.41 7 7.82 7 0 7 C0 4.69 0 2.38 0 0 Z " fill="#F1E550" transform="translate(178,283)"/>
<path d="M0 0 C2.97 0 5.94 0 9 0 C9 2.97 9 5.94 9 9 C11.31 9 13.62 9 16 9 C16 11.97 16 14.94 16 18 C13.36 18 10.72 18 8 18 C8 15.36 8 12.72 8 10 C5.36 10 2.72 10 0 10 C0 6.7 0 3.4 0 0 Z " fill="#95A642" transform="translate(143,256)"/>
<path d="M0 0 C1.98 0 3.96 0 6 0 C6 1.65 6 3.3 6 5 C6.99 5 7.98 5 9 5 C9 3.35 9 1.7 9 0 C12.63 0 16.26 0 20 0 C20 1.65 20 3.3 20 5 C18.68 5.33 17.36 5.66 16 6 C16.33 6.99 16.66 7.98 17 9 C10.07 9 3.14 9 -4 9 C-4 7.68 -4 6.36 -4 5 C-2.68 5 -1.36 5 0 5 C0 3.35 0 1.7 0 0 Z " fill="#909090" transform="translate(79,175)"/>
<path d="M0 0 C0.33 0 0.66 0 1 0 C1 24.75 1 49.5 1 75 C-0.65 75 -2.3 75 -4 75 C-4 51.57 -4 28.14 -4 4 C-3.67 4 -3.34 4 -3 4 C-2.67 26.77 -2.34 49.54 -2 73 C-1.34 73 -0.68 73 0 73 C0 48.91 0 24.82 0 0 Z " fill="#8C8C8B" transform="translate(223,81)"/>
<path d="M0 0 C5.61 0 11.22 0 17 0 C17 2.97 17 5.94 17 9 C11.39 9 5.78 9 0 9 C0 6.03 0 3.06 0 0 Z " fill="#0E1209" transform="translate(152,147)"/>
<path d="M0 0 C2.97 0 5.94 0 9 0 C9.09765625 6.15234375 9.09765625 6.15234375 9 8 C8 9 8 9 4.4375 9.0625 C3.303125 9.041875 2.16875 9.02125 1 9 C1 11.31 1 13.62 1 16 C-1.97 16 -4.94 16 -8 16 C-8 13.36 -8 10.72 -8 8 C-5.36 8 -2.72 8 0 8 C0 5.36 0 2.72 0 0 Z " fill="#852E55" transform="translate(227,206)"/>
<path d="M0 0 C2.97 0 5.94 0 9 0 C9 5.28 9 10.56 9 16 C6.03 16 3.06 16 0 16 C0 10.72 0 5.44 0 0 Z " fill="#EF8E5A" transform="translate(236,164)"/>
<path d="M0 0 C0.33 0 0.66 0 1 0 C1 3.96 1 7.92 1 12 C2.98 12 4.96 12 7 12 C5.125 13.0625 5.125 13.0625 3 14 C2.34 13.67 1.68 13.34 1 13 C1 14.65 1 16.3 1 18 C2.65 18 4.3 18 6 18 C5.34 18.33 4.68 18.66 4 19 C3.34444881 21.52733235 3.34444881 21.52733235 3 24 C3.33 24 3.66 24 4 24 C4 31.26 4 38.52 4 46 C6.31 46 8.62 46 11 46 C11 46.66 11 47.32 11 48 C9.865625 48.144375 8.73125 48.28875 7.5625 48.4375 C4.19222799 48.61171478 4.19222799 48.61171478 3 50 C1.00041636 50.04080783 -1.00045254 50.04254356 -3 50 C-1.515 49.505 -1.515 49.505 0 49 C0 32.83 0 16.66 0 0 Z " fill="#563B34" transform="translate(113,115)"/>
<path d="M0 0 C1.65 0 3.3 0 5 0 C5 1.65 5 3.3 5 5 C6.65 5 8.3 5 10 5 C10 6.98 10 8.96 10 11 C11.65 11 13.3 11 15 11 C15 12.32 15 13.64 15 15 C10.38 15 5.76 15 1 15 C0.67 10.05 0.34 5.1 0 0 Z " fill="#A0A0A0" transform="translate(244,215)"/>
<path d="M0 0 C5.28 0 10.56 0 16 0 C16 2.64 16 5.28 16 8 C10.72 8 5.44 8 0 8 C0 5.36 0 2.72 0 0 Z " fill="#101608" transform="translate(185,172)"/>
<path d="M0 0 C5.61 0 11.22 0 17 0 C17 1.98 17 3.96 17 6 C16.030625 6.12375 15.06125 6.2475 14.0625 6.375 C12.5465625 6.684375 12.5465625 6.684375 11 7 C10.67 7.66 10.34 8.32 10 9 C7.03 9 4.06 9 1 9 C0.29925156 5.846632 0 3.27275026 0 0 Z " fill="#AC855C" transform="translate(158,131)"/>
<path d="M0 0 C5.61 0 11.22 0 17 0 C17 2.31 17 4.62 17 7 C11.06 7.33 5.12 7.66 -1 8 C-0.67 5.36 -0.34 2.72 0 0 Z " fill="#20663F" transform="translate(202,283)"/>
<path d="M0 0 C3.96 0 7.92 0 12 0 C12 5.61 12 11.22 12 17 C11.67 17 11.34 17 11 17 C11 11.72 11 6.44 11 1 C8.03 1 5.06 1 2 1 C2 12.55 2 24.1 2 36 C-0.64 36 -3.28 36 -6 36 C-6 38.31 -6 40.62 -6 43 C-6.33 43 -6.66 43 -7 43 C-7 40.03 -7 37.06 -7 34 C-4.03 33.505 -4.03 33.505 -1 33 C-0.67 22.11 -0.34 11.22 0 0 Z " fill="#532F19" transform="translate(234,163)"/>
<path d="M0 0 C5.61 0 11.22 0 17 0 C17 2.31 17 4.62 17 7 C11.39 7 5.78 7 0 7 C0 4.69 0 2.38 0 0 Z " fill="#EFE44F" transform="translate(202,275)"/>
<path d="M0 0 C3.63 0 7.26 0 11 0 C12.30475618 2.60951236 12.11301572 4.52701285 12.09765625 7.4453125 C12.09443359 8.52167969 12.09121094 9.59804687 12.08789062 10.70703125 C12.07951172 11.83496094 12.07113281 12.96289062 12.0625 14.125 C12.05798828 15.26066406 12.05347656 16.39632812 12.04882812 17.56640625 C12.03701615 20.37765638 12.02054507 23.1888023 12 26 C11.01 26 10.02 26 9 26 C9 18.74 9 11.48 9 4 C5.7 4 2.4 4 -1 4 C-0.67 2.68 -0.34 1.36 0 0 Z " fill="#C3B39D" transform="translate(176,108)"/>
<path d="M0 0 C2 2 2 2 2.22705078 5.34814453 C2.22673375 6.77640633 2.21541361 8.20469212 2.1953125 9.6328125 C2.1924826 10.38464813 2.18965271 11.13648376 2.18673706 11.91110229 C2.17552874 14.31589578 2.15042352 16.72031881 2.125 19.125 C2.11497102 20.75390088 2.10584503 22.38280758 2.09765625 24.01171875 C2.07558735 28.00795556 2.04105351 32.00391494 2 36 C1.34 36 0.68 36 0 36 C-0.33 29.73 -0.66 23.46 -1 17 C-1.99 17 -2.98 17 -4 17 C-4 13.37 -4 9.74 -4 6 C-3.01 5.67 -2.02 5.34 -1 5 C-0.67 3.35 -0.34 1.7 0 0 Z " fill="#7B553F" transform="translate(111,128)"/>
<path d="M0 0 C2.64 0 5.28 0 8 0 C8 4.62 8 9.24 8 14 C5.36 14 2.72 14 0 14 C0 9.38 0 4.76 0 0 Z " fill="#FA955F" transform="translate(126,165)"/>
<path d="M0 0 C3.3 0 6.6 0 10 0 C10 3.63 10 7.26 10 11 C6.7 11 3.4 11 0 11 C0 7.37 0 3.74 0 0 Z " fill="#C4A99F" transform="translate(121,117)"/>
<path d="M0 0 C4.95 0 9.9 0 15 0 C15.33 9.9 15.66 19.8 16 30 C14.68 30 13.36 30 12 30 C12 29.34 12 28.68 12 28 C11.01 28 10.02 28 9 28 C9 20.41 9 12.82 9 5 C9.33 5 9.66 5 10 5 C10 12.26 10 19.52 10 27 C10.99 27 11.98 27 13 27 C12.67 18.42 12.34 9.84 12 1 C6.06 1.495 6.06 1.495 0 2 C0 1.34 0 0.68 0 0 Z " fill="#A37856" transform="translate(175,107)"/>
<path d="M0 0 C2.64 0 5.28 0 8 0 C8 2.97 8 5.94 8 9 C5.69 9 3.38 9 1 9 C1 11.31 1 13.62 1 16 C0.67 16 0.34 16 0 16 C0 13.69 0 11.38 0 9 C-5.61 9 -11.22 9 -17 9 C-17 11.31 -17 13.62 -17 16 C-17.33 16 -17.66 16 -18 16 C-18 13.36 -18 10.72 -18 8 C-12.06 8 -6.12 8 0 8 C0 5.36 0 2.72 0 0 Z " fill="#9CB147" transform="translate(219,266)"/>
<path d="M0 0 C5.28 0 10.56 0 16 0 C16 1.98 16 3.96 16 6 C10.72 6 5.44 6 0 6 C0 4.02 0 2.04 0 0 Z " fill="#F8E950" transform="translate(160,275)"/>
<path d="M0 0 C2 3.75 2 3.75 2 6 C5.18762365 8.12508244 7.26512223 8.5020163 11 9 C11.33 8.34 11.66 7.68 12 7 C12 7.99 12 8.98 12 10 C10.74703125 10.04898438 9.4940625 10.09796875 8.203125 10.1484375 C6.55206179 10.22348583 4.90102119 10.29903277 3.25 10.375 C2.0125 10.42140625 2.0125 10.42140625 0.75 10.46875 C-0.04921875 10.50742188 -0.8484375 10.54609375 -1.671875 10.5859375 C-2.77160645 10.63306885 -2.77160645 10.63306885 -3.89355469 10.68115234 C-6.07978768 10.89937341 -6.07978768 10.89937341 -8.14550781 12.08837891 C-8.75749023 12.38921387 -9.36947266 12.69004883 -10 13 C-10.66 12.67 -11.32 12.34 -12 12 C-12 9.69 -12 7.38 -12 5 C-10.33388095 4.957279 -8.66617115 4.95936168 -7 5 C-6.67 5.33 -6.34 5.66 -6 6 C-4.00041636 6.04080783 -1.99954746 6.04254356 0 6 C0 4.02 0 2.04 0 0 Z " fill="#886646" transform="translate(157,131)"/>
<path d="M0 0 C5.52677733 -0.19392201 9.75614911 0.2520497 15 2 C15 2.66 15 3.32 15 4 C13.35 4 11.7 4 10 4 C9.34 5.65 8.68 7.3 8 9 C5.36 9 2.72 9 0 9 C0 6.03 0 3.06 0 0 Z " fill="#242014" transform="translate(113,95)"/>
<path d="M0 0 C2 2 2 2 2.1953125 5.0390625 C2.17210937 6.22242188 2.14890625 7.40578125 2.125 8.625 C2.10695312 9.81351562 2.08890625 11.00203125 2.0703125 12.2265625 C2.04710937 13.14179688 2.02390625 14.05703125 2 15 C4.64 15 7.28 15 10 15 C10 17.97 10 20.94 10 24 C15.61 24 21.22 24 27 24 C27 26.64 27 29.28 27 32 C26.67 32 26.34 32 26 32 C26 29.69 26 27.38 26 25 C24.78441406 25.01160156 23.56882813 25.02320313 22.31640625 25.03515625 C20.73177236 25.04453278 19.14713682 25.05363313 17.5625 25.0625 C16.76005859 25.07087891 15.95761719 25.07925781 15.13085938 25.08789062 C13.08704779 25.0965143 11.04316098 25.0522815 9 25 C8 24 8 24 7.9375 20.4375 C7.958125 19.303125 7.97875 18.16875 8 17 C5.36 17 2.72 17 0 17 C0 11.39 0 5.78 0 0 Z " fill="#123421" transform="translate(142,266)"/>
<path d="M0 0 C0.66 1.32 1.32 2.64 2 4 C-7.9 4 -17.8 4 -28 4 C-28 4.66 -28 5.32 -28 6 C-29.98 6 -31.96 6 -34 6 C-34 5.01 -34 4.02 -34 3 C-35.10859375 3.02320312 -36.2171875 3.04640625 -37.359375 3.0703125 C-38.82290992 3.08907577 -40.28645214 3.10727537 -41.75 3.125 C-42.47960937 3.14175781 -43.20921875 3.15851563 -43.9609375 3.17578125 C-48.13521398 3.21372922 -50.16970546 2.91514727 -54 1 C-45.09 1 -36.18 1 -27 1 C-27 1.66 -27 2.32 -27 3 C-18.42 2.67 -9.84 2.34 -1 2 C-0.67 1.34 -0.34 0.68 0 0 Z " fill="#593B34" transform="translate(166,112)"/>
<path d="M0 0 C2.97 0 5.94 0 9 0 C9 1.98 9 3.96 9 6 C3.39 6 -2.22 6 -8 6 C-8 8.97 -8 11.94 -8 15 C-10.97 15 -13.94 15 -17 15 C-17 14.67 -17 14.34 -17 14 C-14.69 14 -12.38 14 -10 14 C-10 10.7 -10 7.4 -10 4 C-4.06 4 1.88 4 8 4 C8 3.34 8 2.68 8 2 C5.36 2 2.72 2 0 2 C0 1.34 0 0.68 0 0 Z " fill="#453424" transform="translate(160,141)"/>
<path d="M0 0 C3.3 0 6.6 0 10 0 C10 2.64 10 5.28 10 8 C6.7 8 3.4 8 0 8 C0 5.36 0 2.72 0 0 Z " fill="#7F3C0C" transform="translate(125,266)"/>
<path d="M0 0 C3.3 0 6.6 0 10 0 C10 2.64 10 5.28 10 8 C6.7 8 3.4 8 0 8 C0 5.36 0 2.72 0 0 Z " fill="#D85713" transform="translate(159,198)"/>
<path d="M0 0 C3.3 0 6.6 0 10 0 C10 2.64 10 5.28 10 8 C6.7 8 3.4 8 0 8 C0 5.36 0 2.72 0 0 Z " fill="#E1EBD6" transform="translate(201,190)"/>
<path d="M0 0 C2.64 0 5.28 0 8 0 C8 3.3 8 6.6 8 10 C5.36 10 2.72 10 0 10 C0 6.7 0 3.4 0 0 Z " fill="#CA5111" transform="translate(143,180)"/>
<path d="M0 0 C2.33294775 -0.04241723 4.66702567 -0.04092937 7 0 C8 1 8 1 8.09765625 3.06640625 C8.08605469 3.89011719 8.07445312 4.71382812 8.0625 5.5625 C8.05347656 6.38878906 8.04445312 7.21507812 8.03515625 8.06640625 C8.02355469 8.70449219 8.01195312 9.34257812 8 10 C5.36 10 2.72 10 0 10 C0 6.7 0 3.4 0 0 Z " fill="#311F09" transform="translate(151,180)"/>
<path d="M0 0 C1.134375 0.020625 2.26875 0.04125 3.4375 0.0625 C3.4375 3.3625 3.4375 6.6625 3.4375 10.0625 C0.7975 10.0625 -1.8425 10.0625 -4.5625 10.0625 C-4.58939216 8.58343108 -4.60884621 7.10422517 -4.625 5.625 C-4.63660156 4.80128906 -4.64820313 3.97757813 -4.66015625 3.12890625 C-4.49001835 -0.47121162 -3.73687179 0.06555915 0 0 Z " fill="#101808" transform="translate(173.5625,179.9375)"/>
<path d="M0 0 C5.28 0 10.56 0 16 0 C16.33 1.32 16.66 2.64 17 4 C13.24600202 5.2039337 9.66782588 5.09877617 5.75 5.0625 C4.48671875 5.05347656 3.2234375 5.04445313 1.921875 5.03515625 C0.95765625 5.02355469 -0.0065625 5.01195313 -1 5 C-0.67 3.35 -0.34 1.7 0 0 Z " fill="#8D694F" transform="translate(139,107)"/>
<path d="M0 0 C2.64 0 5.28 0 8 0 C8 3.3 8 6.6 8 10 C2.25 10.125 2.25 10.125 0 9 C0 6.03 0 3.06 0 0 Z " fill="#151808" transform="translate(211,180)"/>
<path d="M0 0 C3.96 0 7.92 0 12 0 C12 1.98 12 3.96 12 6 C6.06 6.495 6.06 6.495 0 7 C0 4.69 0 2.38 0 0 Z " fill="#9C7852" transform="translate(120,149)"/>
<path d="M0 0 C0 0.33 0 0.66 0 1 C-2.31 1 -4.62 1 -7 1 C-7 2.98 -7 4.96 -7 7 C-9.31 7 -11.62 7 -14 7 C-14 5.35 -14 3.7 -14 2 C-17.3 2 -20.6 2 -24 2 C-24 1.67 -24 1.34 -24 1 C-15.81560775 -1.44095909 -8.39753719 -0.81873222 0 0 Z " fill="#6E4F37" transform="translate(150,154)"/>
<path d="M0 0 C2.64 0 5.28 0 8 0 C8 0.33 8 0.66 8 1 C6.35 1.33 4.7 1.66 3 2 C2.67 8.6 2.34 15.2 2 22 C3.65 22 5.3 22 7 22 C7 17.05 7 12.1 7 7 C7.33 7 7.66 7 8 7 C8 12.28 8 17.56 8 23 C5.36 23 2.72 23 0 23 C0 15.41 0 7.82 0 0 Z " fill="#1E1D0E" transform="translate(219,191)"/>
<path d="M0 0 C2.64 0 5.28 0 8 0 C8 2.97 8 5.94 8 9 C5.36 9 2.72 9 0 9 C0 6.03 0 3.06 0 0 Z " fill="#306805" transform="translate(160,180)"/>
<path d="M0 0 C2.64 0 5.28 0 8 0 C8 7.59 8 15.18 8 23 C8.99 23 9.98 23 11 23 C11 23.66 11 24.32 11 25 C12.32 25.33 13.64 25.66 15 26 C8.84765625 26.09765625 8.84765625 26.09765625 7 26 C6 25 6 25 5.88647461 22.86694336 C5.89171143 21.95050049 5.89694824 21.03405762 5.90234375 20.08984375 C5.90556641 19.10048828 5.90878906 18.11113281 5.91210938 17.09179688 C5.92048828 16.05087891 5.92886719 15.00996094 5.9375 13.9375 C5.94201172 12.89271484 5.94652344 11.84792969 5.95117188 10.77148438 C5.96300087 8.1809334 5.97948311 5.59049441 6 3 C5.01 2.67 4.02 2.34 3 2 C2.01 1.34 1.02 0.68 0 0 Z " fill="#704D3B" transform="translate(176,112)"/>
<path d="M0 0 C3.3 0 6.6 0 10 0 C10 3.3 10 6.6 10 10 C8.68 10 7.36 10 6 10 C6 8.35 6 6.7 6 5 C4.02 5 2.04 5 0 5 C0 3.35 0 1.7 0 0 Z " fill="#A3A3A3" transform="translate(254,215)"/>
<path d="M0 0 C3.3 0 6.6 0 10 0 C10 2.31 10 4.62 10 7 C6.7 7 3.4 7 0 7 C0 4.69 0 2.38 0 0 Z " fill="#18130E" transform="translate(125,156)"/>
<path d="M0 0 C2.64 0 5.28 0 8 0 C8 2.64 8 5.28 8 8 C5.36 8 2.72 8 0 8 C0 5.36 0 2.72 0 0 Z " fill="#D55612" transform="translate(151,190)"/>
<path d="M0 0 C2.31 0 4.62 0 7 0 C7 2.97 7 5.94 7 9 C4.69 9 2.38 9 0 9 C0 6.03 0 3.06 0 0 Z " fill="#EADF4E" transform="translate(144,257)"/>
<path d="M0 0 C2.97 0 5.94 0 9 0 C9 2.31 9 4.62 9 7 C6.03 7 3.06 7 0 7 C0 4.69 0 2.38 0 0 Z " fill="#30BB53" transform="translate(159,241)"/>
<path d="M0 0 C2.97 0 5.94 0 9 0 C9 2.31 9 4.62 9 7 C6.03 7 3.06 7 0 7 C0 4.69 0 2.38 0 0 Z " fill="#121309" transform="translate(160,190)"/>
<path d="M0 0 C2.31 0 4.62 0 7 0 C7 2.97 7 5.94 7 9 C4.69 9 2.38 9 0 9 C0 6.03 0 3.06 0 0 Z " fill="#EA6114" transform="translate(220,180)"/>
<path d="M0 0 C5.28 0 10.56 0 16 0 C16 6.6 16 13.2 16 20 C15.67 20 15.34 20 15 20 C15 15.38 15 10.76 15 6 C13.35 6 11.7 6 10 6 C10 4.35 10 2.7 10 1 C6.7 1 3.4 1 0 1 C0 0.67 0 0.34 0 0 Z " fill="#1C1C1C" transform="translate(254,214)"/>
<path d="M0 0 C0.33 0.66 0.66 1.32 1 2 C0.67 2.66 0.34 3.32 0 4 C3.63 4 7.26 4 11 4 C11 4.33 11 4.66 11 5 C2.09 5 -6.82 5 -16 5 C-16 11.6 -16 18.2 -16 25 C-16.33 25 -16.66 25 -17 25 C-17 18.07 -17 11.14 -17 4 C-12.38 4 -7.76 4 -3 4 C-3 3.01 -3 2.02 -3 1 C-2.01 0.67 -1.02 0.34 0 0 Z " fill="#946B52" transform="translate(127,108)"/>
<path d="M0 0 C1.65 0 3.3 0 5 0 C5 1.65 5 3.3 5 5 C3.68 5 2.36 5 1 5 C1 6.65 1 8.3 1 10 C-0.98 10 -2.96 10 -5 10 C-5 8.35 -5 6.7 -5 5 C-3.35 5 -1.7 5 0 5 C0 3.35 0 1.7 0 0 Z " fill="#1E1E1E" transform="translate(114,210)"/>
<path d="M0 0 C0.99 0 1.98 0 3 0 C3 5.94 3 11.88 3 18 C2.01 18 1.02 18 0 18 C0 12.06 0 6.12 0 0 Z " fill="#C5B6A0" transform="translate(107,146)"/>
<path d="M0 0 C1.65 0 3.3 0 5 0 C5 0.99 5 1.98 5 3 C7.31 3 9.62 3 12 3 C11 5 11 5 10 6 C7.30345146 6.07319621 4.63308542 6.09242537 1.9375 6.0625 C1.17888672 6.05798828 0.42027344 6.05347656 -0.36132812 6.04882812 C-2.24091871 6.0370068 -4.12046899 6.01907078 -6 6 C-6 5.67 -6 5.34 -6 5 C-4.02 5 -2.04 5 0 5 C0 3.35 0 1.7 0 0 Z " fill="#896949" transform="translate(164,125)"/>
<path d="M0 0 C1.98 0 3.96 0 6 0 C5 3 5 3 3 7 C-1.62 7 -6.24 7 -11 7 C-11.33 6.01 -11.66 5.02 -12 4 C-6.06 3.505 -6.06 3.505 0 3 C0 2.01 0 1.02 0 0 Z " fill="#615959" transform="translate(172,93)"/>
<path d="M0 0 C2.31 0 4.62 0 7 0 C7 2.31 7 4.62 7 7 C4.36 7.33 1.72 7.66 -1 8 C-0.67 5.36 -0.34 2.72 0 0 Z " fill="#21653D" transform="translate(220,275)"/>
<path d="M0 0 C3.3 0 6.6 0 10 0 C10 1.65 10 3.3 10 5 C6.7 5 3.4 5 0 5 C0 3.35 0 1.7 0 0 Z " fill="#151515" transform="translate(89,175)"/>
<path d="M0 0 C2.31 0 4.62 0 7 0 C7 2.31 7 4.62 7 7 C4.69 7 2.38 7 0 7 C0 4.69 0 2.38 0 0 Z " fill="#D94887" transform="translate(228,206)"/>
<path d="M0 0 C1.32 0.33 2.64 0.66 4 1 C4 4.96 4 8.92 4 13 C2.68 13 1.36 13 0 13 C0 8.71 0 4.42 0 0 Z " fill="#29A62F" transform="translate(107,96)"/>
<path d="M0 0 C0.33 0 0.66 0 1 0 C1.33 2.97 1.66 5.94 2 9 C2.66 9 3.32 9 4 9 C4 7.35 4 5.7 4 4 C3.34 3.67 2.68 3.34 2 3 C2.66 3 3.32 3 4 3 C4.33 2.01 4.66 1.02 5 0 C6.26237731 2.52475462 6.09856404 4.31200466 6.0625 7.125 C6.05347656 8.03507812 6.04445313 8.94515625 6.03515625 9.8828125 C6.02355469 10.58148438 6.01195313 11.28015625 6 12 C4.02 12 2.04 12 0 12 C0 8.04 0 4.08 0 0 Z " fill="#71635D" transform="translate(114,115)"/>
<path d="M0 0 C3.63 0 7.26 0 11 0 C10.67 1.32 10.34 2.64 10 4 C6.37 4 2.74 4 -1 4 C-0.67 2.68 -0.34 1.36 0 0 Z " fill="#BAA48C" transform="translate(176,108)"/>
<path d="M0 0 C2.31 0 4.62 0 7 0 C7 1.98 7 3.96 7 6 C4.69 6 2.38 6 0 6 C0 4.02 0 2.04 0 0 Z " fill="#306705" transform="translate(170,191)"/>
<path d="M0 0 C5.52677733 -0.19392201 9.75614911 0.2520497 15 2 C15 2.66 15 3.32 15 4 C13.35 4 11.7 4 10 4 C9.34 5.65 8.68 7.3 8 9 C5.36 9 2.72 9 0 9 C0 8.67 0 8.34 0 8 C2.31 8 4.62 8 7 8 C7 5.69 7 3.38 7 1 C4.69 1 2.38 1 0 1 C0 0.67 0 0.34 0 0 Z " fill="#877659" transform="translate(113,95)"/>
<path d="M0 0 C3.3 0 6.6 0 10 0 C10.33 1.32 10.66 2.64 11 4 C7.37 4 3.74 4 0 4 C0 2.68 0 1.36 0 0 Z " fill="#7A5945" transform="translate(145,107)"/>
<path d="M0 0 C1.98 0 3.96 0 6 0 C6 1.98 6 3.96 6 6 C4.02 6 2.04 6 0 6 C0 4.02 0 2.04 0 0 Z " fill="#F5E750" transform="translate(152,267)"/>
<path d="M0 0 C1.98 0 3.96 0 6 0 C6 1.98 6 3.96 6 6 C4.02 6 2.04 6 0 6 C0 4.02 0 2.04 0 0 Z " fill="#F4E64F" transform="translate(220,267)"/>
<path d="M0 0 C1.98 0 3.96 0 6 0 C6 1.98 6 3.96 6 6 C4.02 6 2.04 6 0 6 C0 4.02 0 2.04 0 0 Z " fill="#E04990" transform="translate(220,215)"/>
<path d="M0 0 C1.65 0 3.3 0 5 0 C5 2.31 5 4.62 5 7 C3.35 7 1.7 7 0 7 C0 4.69 0 2.38 0 0 Z " fill="#0D0D0A" transform="translate(153,181)"/>
<path d="M0 0 C0 1.98 0 3.96 0 6 C-5.75 6.125 -5.75 6.125 -8 5 C-7.67 3.68 -7.34 2.36 -7 1 C-1.125 0 -1.125 0 0 0 Z " fill="#A47F57" transform="translate(175,131)"/>
<path d="M0 0 C0.33 0.99 0.66 1.98 1 3 C4.96 3 8.92 3 13 3 C13 3.66 13 4.32 13 5 C10.91695462 5.05418326 8.83350232 5.09287551 6.75 5.125 C5.00976562 5.15980469 5.00976562 5.15980469 3.234375 5.1953125 C0.17213954 5.0103949 -1.44202751 4.60823023 -4 3 C-2.68 3 -1.36 3 0 3 C0 2.01 0 1.02 0 0 Z " fill="#C2B9A8" transform="translate(111,106)"/>
<path d="M0 0 C0.66 0 1.32 0 2 0 C2 0.66 2 1.32 2 2 C4.64 2 7.28 2 10 2 C10 2.66 10 3.32 10 4 C5.38 4 0.76 4 -4 4 C-4 3.34 -4 2.68 -4 2 C-2.68 2 -1.36 2 0 2 C0 1.34 0 0.68 0 0 Z " fill="#7E5F44" transform="translate(158,141)"/>
<path d="M0 0 C3.3 0 6.6 0 10 0 C10 0.99 10 1.98 10 3 C6.37 3 2.74 3 -1 3 C-0.67 2.01 -0.34 1.02 0 0 Z " fill="#C0AE99" transform="translate(128,109)"/>
<path d="M0 0 C1.98 0 3.96 0 6 0 C6 1.65 6 3.3 6 5 C4.02 5 2.04 5 0 5 C0 3.35 0 1.7 0 0 Z " fill="#38D35C" transform="translate(161,242)"/>
<path d="M0 0 C2.12563103 0.11376617 4.2505261 0.24135631 6.375 0.375 C8.15003906 0.47941406 8.15003906 0.47941406 9.9609375 0.5859375 C13 1 13 1 15 3 C10.05 3 5.1 3 0 3 C0 2.01 0 1.02 0 0 Z " fill="#A7805F" transform="translate(112,106)"/>
<path d="M0 0 C0.33 0.66 0.66 1.32 1 2 C3.31 2 5.62 2 8 2 C7.67 2.66 7.34 3.32 7 4 C4.03 3.505 4.03 3.505 1 3 C1 5.31 1 7.62 1 10 C0.67 10 0.34 10 0 10 C0 7.69 0 5.38 0 3 C-3.3 3.33 -6.6 3.66 -10 4 C-10 3.34 -10 2.68 -10 2 C-6.7 2 -3.4 2 0 2 C0 1.34 0 0.68 0 0 Z " fill="#392A1B" transform="translate(135,230)"/>
<path d="M0 0 C0.99 0 1.98 0 3 0 C3 2.97 3 5.94 3 9 C2.01 9.33 1.02 9.66 0 10 C0 6.7 0 3.4 0 0 Z " fill="#614333" transform="translate(108,135)"/>
<path d="M0 0 C1.98 0 3.96 0 6 0 C5.67 1.65 5.34 3.3 5 5 C3.35 5 1.7 5 0 5 C0 3.35 0 1.7 0 0 Z " fill="#766559" transform="translate(114,128)"/>
<path d="M0 0 C1.65 0 3.3 0 5 0 C5 1.65 5 3.3 5 5 C3.35 5 1.7 5 0 5 C0 3.35 0 1.7 0 0 Z " fill="#1B1B1B" transform="translate(254,220)"/>
<path d="M0 0 C1.65 0 3.3 0 5 0 C5 1.65 5 3.3 5 5 C3.35 5 1.7 5 0 5 C0 3.35 0 1.7 0 0 Z " fill="#171717" transform="translate(124,215)"/>
<path d="M0 0 C1.65 0 3.3 0 5 0 C5 1.65 5 3.3 5 5 C3.35 5 1.7 5 0 5 C0 3.35 0 1.7 0 0 Z " fill="#1B1B1B" transform="translate(99,210)"/>
<path d="M0 0 C1.65 0 3.3 0 5 0 C5 1.65 5 3.3 5 5 C3.35 5 1.7 5 0 5 C0 3.35 0 1.7 0 0 Z " fill="#1C1C1C" transform="translate(104,175)"/>
<path d="M0 0 C1.65 0 3.3 0 5 0 C5 1.65 5 3.3 5 5 C3.35 5 1.7 5 0 5 C0 3.35 0 1.7 0 0 Z " fill="#1C1C1C" transform="translate(79,175)"/>
<path d="M0 0 C3.96 0 7.92 0 12 0 C12 0.66 12 1.32 12 2 C8.37 2.33 4.74 2.66 1 3 C0.67 2.01 0.34 1.02 0 0 Z " fill="#A95757" transform="translate(160,97)"/>
<path d="M0 0 C1.65 0 3.3 0 5 0 C4.67 1.65 4.34 3.3 4 5 C2.68 5 1.36 5 0 5 C0 3.35 0 1.7 0 0 Z " fill="#000000" transform="translate(265,214)"/>
<path d="M0 0 C1.32 0 2.64 0 4 0 C4 1.98 4 3.96 4 6 C2.68 6 1.36 6 0 6 C0 4.02 0 2.04 0 0 Z " fill="#FE6616" transform="translate(145,182)"/>
<path d="M0 0 C1.98 0 3.96 0 6 0 C6 1.32 6 2.64 6 4 C4.02 4 2.04 4 0 4 C0 2.68 0 1.36 0 0 Z " fill="#B8A38C" transform="translate(157,108)"/>
<path d="M0 0 C1.32 0 2.64 0 4 0 C3.34 1.98 2.68 3.96 2 6 C2.66 6.33 3.32 6.66 4 7 C3.01 7.495 3.01 7.495 2 8 C1.34 7.67 0.68 7.34 0 7 C0 4.69 0 2.38 0 0 Z " fill="#B08583" transform="translate(145,136)"/>
<path d="M0 0 C1.65 0 3.3 0 5 0 C5 1.65 5 3.3 5 5 C3.35 4.67 1.7 4.34 0 4 C0 2.68 0 1.36 0 0 Z " fill="#6D5A23" transform="translate(114,97)"/>
<path d="M0 0 C1.32 0 2.64 0 4 0 C4 1.65 4 3.3 4 5 C2.68 5 1.36 5 0 5 C0 3.35 0 1.7 0 0 Z " fill="#0E0E0E" transform="translate(95,215)"/>
<path d="M0 0 C1.32 0 2.64 0 4 0 C4 1.32 4 2.64 4 4 C2.02 4 0.04 4 -2 4 C-1.34 2.68 -0.68 1.36 0 0 Z " fill="#AD865C" transform="translate(127,150)"/>
<path d="M0 0 C1.32 0.33 2.64 0.66 4 1 C3.67 2.65 3.34 4.3 3 6 C2.01 6 1.02 6 0 6 C0 4.02 0 2.04 0 0 Z " fill="#AF875D" transform="translate(121,150)"/>
<path d="M0 0 C1.65 0 3.3 0 5 0 C5 1.32 5 2.64 5 4 C3.35 4 1.7 4 0 4 C0 2.68 0 1.36 0 0 Z " fill="#745340" transform="translate(145,107)"/>
</svg>
